<svg width="120" height="120" viewBox="0 0 120 120" fill="none" xmlns="http://www.w3.org/2000/svg">
<path d="M120 60C120 93.1372 93.1372 120 60 120C26.8628 120 0 93.1372 0 60C0 26.8628 26.8628 0 60 0C93.1372 0 120 26.8628 120 60ZM53.0598 91.7695L97.576 47.2534C99.0876 45.7418 99.0876 43.2907 97.576 41.7791L92.1017 36.3048C90.5901 34.793 88.139 34.793 86.6272 36.3048L50.3226 72.6092L33.3728 55.6594C31.8612 54.1478 29.4102 54.1478 27.8983 55.6594L22.424 61.1337C20.9124 62.6453 20.9124 65.0964 22.424 66.608L47.5853 91.7693C49.0972 93.2811 51.548 93.2811 53.0598 91.7695Z" fill="url(#paint0_linear_3032_4094)"/>
<defs>
<linearGradient id="paint0_linear_3032_4094" x1="60" y1="0" x2="59.9999" y2="120" gradientUnits="userSpaceOnUse">
<stop stop-color="#014BB4"/>
<stop offset="1" stop-color="#0773C6"/>
</linearGradient>
</defs>
</svg>
