<svg width="198" height="37" viewBox="0 0 198 37" fill="none" xmlns="http://www.w3.org/2000/svg">
<path d="M18.548 29.7669C23.6199 29.7669 27.7314 25.5875 27.7314 20.4317C27.7314 15.276 23.6199 11.0964 18.548 11.0964C13.4761 11.0964 9.3645 15.276 9.3645 20.4317C9.3645 25.5875 13.4761 29.7669 18.548 29.7669Z" fill="white"/>
<path d="M18.548 24.6313C20.9718 24.6313 22.9367 22.6339 22.9367 20.17C22.9367 17.7061 20.9718 15.7087 18.548 15.7087C16.1241 15.7087 14.1592 17.7061 14.1592 20.17C14.1592 22.6339 16.1241 24.6313 18.548 24.6313Z" fill="#063040"/>
<path d="M51.1732 27.7925C48.5662 27.7925 46.3404 26.8878 44.4957 25.0785C42.651 23.2692 41.7286 21.086 41.7286 18.5289C41.7286 15.9776 42.651 13.7964 44.4957 11.9871C46.3404 10.172 48.5662 9.26343 51.1732 9.26343H60.6177V13.8952H51.1732C49.8697 13.8952 48.7568 14.3504 47.8344 15.2609C46.9121 16.1656 46.4509 17.2542 46.4509 18.527C46.4509 19.8055 46.9121 20.8981 47.8344 21.8027C48.7568 22.7074 49.8697 23.1607 51.1732 23.1607H60.6177V27.7925H51.1732Z" fill="white"/>
<path d="M65.4543 25.0785C63.6096 23.2692 62.6873 21.086 62.6873 18.5289C62.6873 15.9776 63.6096 13.7964 65.4543 11.9871C67.299 10.172 69.5248 9.26343 72.1318 9.26343C74.733 9.26343 76.9551 10.172 78.7998 11.9871C80.6502 13.7964 81.5763 15.9776 81.5763 18.5289C81.5763 21.086 80.6502 23.2692 78.7998 25.0785C76.9551 26.8878 74.733 27.7925 72.1318 27.7925C69.5248 27.7925 67.299 26.8878 65.4543 25.0785ZM75.4629 21.8027C76.391 20.8981 76.856 19.8055 76.856 18.527C76.856 17.2542 76.391 16.1656 75.4629 15.2609C74.5406 14.3504 73.4315 13.8952 72.1337 13.8952C70.8302 13.8952 69.7173 14.3504 68.795 15.2609C67.8726 16.1656 67.4114 17.2542 67.4114 18.527C67.4114 19.8055 67.8726 20.8981 68.795 21.8027C69.7173 22.7074 70.8302 23.1607 72.1337 23.1607C73.4296 23.1607 74.5406 22.7093 75.4629 21.8027Z" fill="white"/>
<path d="M83.6479 27.7925V18.5289C83.6479 15.9776 84.5703 13.7964 86.415 11.9871C88.2597 10.172 90.4855 9.26343 93.0925 9.26343C95.6938 9.26343 97.9158 10.172 99.7605 11.9871C101.611 13.7964 102.537 15.9776 102.537 18.5289V27.7925H97.8148V18.5289C97.8148 17.2562 97.3498 16.1675 96.4217 15.2628C95.4994 14.3524 94.3903 13.8971 93.0925 13.8971C91.789 13.8971 90.6761 14.3524 89.7537 15.2628C88.8314 16.1675 88.3702 17.2562 88.3702 18.5289V27.7925H83.6479Z" fill="white"/>
<path d="M107.376 25.0785C105.531 23.2692 104.609 21.086 104.609 18.5289C104.609 15.9777 105.531 13.7964 107.376 11.9871C109.22 10.172 111.446 9.26343 114.053 9.26343C116.654 9.26343 118.876 10.172 120.721 11.9871C122.571 13.7964 123.498 15.9777 123.498 18.5289H118.775C118.775 17.2562 118.31 16.1675 117.382 15.2628C116.46 14.3524 115.351 13.8971 114.053 13.8971C112.75 13.8971 111.637 14.3524 110.714 15.2628C109.792 16.1675 109.331 17.2562 109.331 18.5289C109.331 19.8074 109.792 20.9 110.714 21.8047C111.637 22.7093 112.75 23.1626 114.053 23.1626V27.7944C111.446 27.7925 109.22 26.8878 107.376 25.0785Z" fill="white"/>
<path d="M135.014 27.7925C132.407 27.7925 130.181 26.8878 128.336 25.0785C126.491 23.2692 125.569 21.086 125.569 18.5289C125.569 15.9776 126.491 13.7964 128.336 11.9871C130.181 10.172 132.407 9.26343 135.014 9.26343H144.458V13.8952H135.014C133.71 13.8952 132.597 14.3504 131.675 15.2609C130.752 16.1656 130.291 17.2542 130.291 18.527C130.291 19.8055 130.752 20.8981 131.675 21.8027C132.597 22.7074 133.71 23.1607 135.014 23.1607H144.458V27.7925H135.014Z" fill="white"/>
<path d="M149.297 25.0786C147.452 23.2693 146.53 21.0861 146.53 18.5291V0H151.252V9.26356H155.974V13.8953H151.252V18.5271C151.252 19.8057 151.713 20.8982 152.635 21.8029C153.558 22.7075 154.671 23.1608 155.974 23.1608V27.7926C153.367 27.7926 151.141 26.888 149.297 25.0786Z" fill="white"/>
<path d="M160.811 25.0785C158.966 23.2692 158.044 21.086 158.044 18.5289C158.044 15.9777 158.966 13.7964 160.811 11.9871C162.655 10.172 164.881 9.26343 167.488 9.26343C170.089 9.26343 172.312 10.172 174.156 11.9871C176.007 13.7964 176.933 15.9777 176.933 18.5289V27.7925H172.211V18.5289C172.211 17.2562 171.746 16.1675 170.817 15.2628C169.895 14.3524 168.786 13.8971 167.488 13.8971C166.185 13.8971 165.072 14.3524 164.149 15.2628C163.227 16.1675 162.766 17.2562 162.766 18.5289C162.766 19.8074 163.227 20.9 164.149 21.8047C165.072 22.7093 166.185 23.1626 167.488 23.1626V27.7944C164.881 27.7925 162.655 26.8878 160.811 25.0785Z" fill="white"/>
<path d="M179.004 27.7925V18.5289C179.004 15.9776 179.927 13.7964 181.771 11.9871C183.616 10.172 185.842 9.26343 188.449 9.26343C191.05 9.26343 193.272 10.172 195.117 11.9871C196.967 13.7964 197.893 15.9776 197.893 18.5289H193.171C193.171 17.2562 192.706 16.1675 191.778 15.2628C190.856 14.3524 189.746 13.8971 188.449 13.8971C187.145 13.8971 186.032 14.3524 185.11 15.2628C184.188 16.1675 183.726 17.2562 183.726 18.5289V27.7925H179.004Z" fill="white"/>
<path d="M16.2363 0.185995L21.1454 0.182129C21.1473 0.600558 21.1873 1.28437 21.435 2.06118C22.5079 5.43186 25.9458 5.84641 29.2369 8.86647C29.658 9.25196 32.5261 11.9466 33.74 16.1444C34.9482 20.319 33.9534 24.021 33.3474 25.7722C31.3446 26.1848 29.3436 26.5974 27.3407 27.01C27.9524 25.9465 28.8919 23.9822 29.0692 21.3729C29.1244 20.5593 29.2083 18.1668 28.1849 15.7163C25.7114 9.79631 19.4569 9.97647 17.0443 4.12039C16.383 2.50673 16.2573 1.04029 16.2363 0.185995Z" fill="url(#paint0_linear)"/>
<path d="M37.056 28.7284L34.6834 33.0967C34.3214 32.8952 33.7154 32.6008 32.9264 32.4458C29.5057 31.7678 27.4838 34.6251 23.2932 36.0916C22.7577 36.2795 19.0493 37.527 14.8472 36.5758C10.6681 35.6305 7.96201 32.9533 6.75 31.5683C7.36363 29.5885 7.97728 27.6067 8.59281 25.627C9.21216 26.6866 10.447 28.4727 12.6081 29.8926C13.2808 30.3362 15.3008 31.5683 17.9059 31.8433C24.2003 32.5078 27.0703 26.8571 33.279 27.5467C34.9864 27.7365 36.309 28.3351 37.056 28.7284Z" fill="url(#paint1_linear)"/>
<path d="M2.5155 32.6959L0 28.4108C0.354456 28.1958 0.909009 27.8103 1.43879 27.1962C3.73894 24.5346 2.33065 21.3188 3.19773 16.9002C3.30826 16.3365 4.11817 12.4505 7.04339 9.24251C9.95336 6.05005 13.5913 5.02529 15.3807 4.65723C16.7528 6.19534 18.1268 7.73152 19.4989 9.26963C18.2869 9.27932 16.1468 9.46335 13.8505 10.645C13.1339 11.0131 11.0701 12.1638 9.52268 14.3121C5.78564 19.5018 9.13964 24.8716 5.42356 29.9761C4.40212 31.3805 3.22631 32.2406 2.5155 32.6959Z" fill="url(#paint2_linear)"/>
<defs>
<linearGradient id="paint0_linear" x1="29.3487" y1="5.04677" x2="19.1882" y2="22.1617" gradientUnits="userSpaceOnUse">
<stop stop-color="#FEB12B"/>
<stop offset="0.1976" stop-color="#FEAE2B"/>
<stop offset="0.3521" stop-color="#FEA42B"/>
<stop offset="0.4919" stop-color="#FD932A"/>
<stop offset="0.6231" stop-color="#FD7C2A"/>
<stop offset="0.7483" stop-color="#FD5E29"/>
<stop offset="0.8689" stop-color="#FC3928"/>
<stop offset="0.9839" stop-color="#FB0E27"/>
<stop offset="0.9949" stop-color="#FB0927"/>
</linearGradient>
<linearGradient id="paint1_linear" x1="26.5174" y1="38.038" x2="16.2122" y2="21.0125" gradientUnits="userSpaceOnUse">
<stop stop-color="#FEB12B"/>
<stop offset="0.1976" stop-color="#FEAE2B"/>
<stop offset="0.3521" stop-color="#FEA42B"/>
<stop offset="0.4919" stop-color="#FD932A"/>
<stop offset="0.6231" stop-color="#FD7C2A"/>
<stop offset="0.7483" stop-color="#FD5E29"/>
<stop offset="0.8689" stop-color="#FC3928"/>
<stop offset="0.9839" stop-color="#FB0E27"/>
<stop offset="0.9949" stop-color="#FB0927"/>
</linearGradient>
<linearGradient id="paint2_linear" x1="-0.0806407" y1="18.7604" x2="19.5828" y2="18.5922" gradientUnits="userSpaceOnUse">
<stop stop-color="#FEB12B"/>
<stop offset="0.1976" stop-color="#FEAE2B"/>
<stop offset="0.3521" stop-color="#FEA42B"/>
<stop offset="0.4919" stop-color="#FD932A"/>
<stop offset="0.6231" stop-color="#FD7C2A"/>
<stop offset="0.7483" stop-color="#FD5E29"/>
<stop offset="0.8689" stop-color="#FC3928"/>
<stop offset="0.9839" stop-color="#FB0E27"/>
<stop offset="0.9949" stop-color="#FB0927"/>
</linearGradient>
</defs>
</svg>
