<svg id="Layer_2" data-name="Layer 2" xmlns="http://www.w3.org/2000/svg" xmlns:xlink="http://www.w3.org/1999/xlink" viewBox="0 0 1000 1000"><defs><style>.cls-1{fill:none;}.cls-2{clip-path:url(#clip-path);}.cls-3{fill:#fff;}.cls-4{fill:#2653a0;}.cls-5{fill:#163989;}.cls-6{fill:#03277c;}.cls-7{fill:#192363;}.cls-8{fill:#d9eafc;}.cls-9{fill:#c3ddf4;}.cls-10{fill:#aec1ed;}.cls-11{fill:#74aeff;}.cls-12{fill:#5e93ff;}.cls-13{opacity:0.25;isolation:isolate;}</style><clipPath id="clip-path"><rect class="cls-1" width="1000" height="1000"/></clipPath></defs><g class="cls-2"><path class="cls-3" d="M521.49,978.52C785.77,978.52,1000,764.28,1000,500S785.77,21.49,521.49,21.49,43,235.73,43,500,257.21,978.52,521.49,978.52Z"/><path class="cls-4" d="M516.47,700.26H362.74v80.53H516.47Z"/><path class="cls-5" d="M401.49,700.26H362.74v80.53h38.75Z"/><path class="cls-6" d="M618.87,778.85H249.11a10,10,0,0,0-10,10v50a10,10,0,0,0,10,10H618.84Z"/><path class="cls-7" d="M277.94,838.76v-50a10,10,0,0,1,10-10H249.11a10,10,0,0,0-10,10v50a10,10,0,0,0,10,10H288a10,10,0,0,1-10-10Z"/><path class="cls-6" d="M869.25,115.17H10a10,10,0,0,0-10,10V692.25a10,10,0,0,0,10,10H618.84V403.85a13.65,13.65,0,0,1,13.65-13.65H879.18V125.13A10,10,0,0,0,869.25,115.17Z"/><path class="cls-3" d="M43.74,602.57a6,6,0,0,0,6,6H618.86V403.85a13.65,13.65,0,0,1,13.65-13.65h203V212.89H43.74Z"/><path class="cls-8" d="M82.5,602.57V212.89H43.74V602.57a6,6,0,0,0,6,6H88.5A6,6,0,0,1,82.5,602.57Z"/><path class="cls-4" d="M439.61,682.11a26.91,26.91,0,1,0-26.89-26.92h0A26.91,26.91,0,0,0,439.61,682.11Z"/><path class="cls-9" d="M618.86,435.83H514.52a5.88,5.88,0,0,0-5.86,5.87V558.23a5.87,5.87,0,0,0,5.86,5.85H618.86Z"/><path class="cls-10" d="M547.41,558.18V441.66a5.88,5.88,0,0,1,5.86-5.87H514.52a5.88,5.88,0,0,0-5.86,5.87V558.18a5.87,5.87,0,0,0,5.86,5.86h38.75A5.88,5.88,0,0,1,547.41,558.18Z"/><path class="cls-9" d="M632.54,390.18h91.07V262.47a9.82,9.82,0,0,0-9.78-9.76H165.4a9.8,9.8,0,0,0-9.76,9.76V392.41a9.8,9.8,0,0,0,9.76,9.77H619A13.65,13.65,0,0,1,632.54,390.18Z"/><path class="cls-10" d="M194.39,392.4V262.47a9.79,9.79,0,0,1,9.76-9.76H165.4a9.78,9.78,0,0,0-9.76,9.76V392.4a9.8,9.8,0,0,0,9.76,9.78h38.75A9.8,9.8,0,0,1,194.39,392.4Z"/><path class="cls-11" d="M829.5,166H49.73a6,6,0,0,0-6,6v42.89H835.47V172A6,6,0,0,0,829.5,166Z"/><path class="cls-12" d="M88.5,166H49.73a6,6,0,0,0-6,6v42.89H82.5V172A6,6,0,0,1,88.5,166Z"/><path class="cls-13" d="M335,466.76H170.58a14.7,14.7,0,0,1,0-29.3H335a14.7,14.7,0,0,1,2.36,29.3A15.49,15.49,0,0,1,335,466.76Z"/><path class="cls-13" d="M335,514.59H170.58a14.7,14.7,0,0,1,0-29.3H335a14.7,14.7,0,0,1,2.36,29.3A15.49,15.49,0,0,1,335,514.59Z"/><path class="cls-13" d="M335,562.41H170.58a14.69,14.69,0,0,1,0-29.29H335a14.69,14.69,0,1,1,2.36,29.29A13.29,13.29,0,0,1,335,562.41Z"/><path class="cls-13" d="M464,466.76H379.37a14.7,14.7,0,0,1,0-29.3H464a14.7,14.7,0,0,1,2.35,29.3A15.36,15.36,0,0,1,464,466.76Z"/><path class="cls-13" d="M464,514.59H379.37a14.7,14.7,0,0,1,0-29.3H464a14.7,14.7,0,0,1,2.35,29.3A15.36,15.36,0,0,1,464,514.59Z"/><path class="cls-13" d="M464,562.41H379.37a14.69,14.69,0,0,1,0-29.29H464a14.69,14.69,0,0,1,2.35,29.29A13.18,13.18,0,0,1,464,562.41Z"/><path class="cls-4" d="M984.38,388.23A15.67,15.67,0,0,1,1000,403.85V876.06a15.67,15.67,0,0,1-15.63,15.62H632.54a15.67,15.67,0,0,1-15.63-15.62V403.85a15.67,15.67,0,0,1,15.63-15.62Z"/><path class="cls-3" d="M659.32,830.33a9.79,9.79,0,0,1-9.76-9.77V428.1a9.8,9.8,0,0,1,9.76-9.78H957.61a9.8,9.8,0,0,1,9.76,9.78V820.56a9.79,9.79,0,0,1-9.76,9.77Z"/><path class="cls-8" d="M688.31,820.56V428.1a9.81,9.81,0,0,1,9.77-9.78H659.32a9.8,9.8,0,0,0-9.76,9.78V820.56a9.79,9.79,0,0,0,9.76,9.77h38.76A9.8,9.8,0,0,1,688.31,820.56Z"/><path class="cls-4" d="M790.18,869.39a9.79,9.79,0,0,1-9.76-9.77v-3.74a9.79,9.79,0,0,1,9.76-9.77h36.57a9.79,9.79,0,0,1,9.76,9.77v3.8a9.79,9.79,0,0,1-9.76,9.76Z"/><path class="cls-11" d="M967.37,456V428.1a9.8,9.8,0,0,0-9.76-9.78H659.32a9.8,9.8,0,0,0-9.76,9.78V456Z"/><path class="cls-12" d="M698.08,418.32H659.32a9.8,9.8,0,0,0-9.76,9.78V456h38.75V428.1A9.81,9.81,0,0,1,698.08,418.32Z"/><path class="cls-13" d="M875,634.64H741.89a14.7,14.7,0,0,1-2.35-29.3,15.36,15.36,0,0,1,2.35,0H875a14.7,14.7,0,0,1,0,29.3Z"/><path class="cls-13" d="M875,679.81H741.89a14.7,14.7,0,0,1-2.35-29.3,15.36,15.36,0,0,1,2.35,0H875a14.7,14.7,0,0,1,0,29.3Z"/><path class="cls-13" d="M875,725H741.89a14.7,14.7,0,0,1-2.35-29.3,15.36,15.36,0,0,1,2.35,0H875a14.7,14.7,0,0,1,0,29.3Z"/><path class="cls-9" d="M937,570.82a9.79,9.79,0,0,1-9.76,9.77H689.66a9.82,9.82,0,0,1-9.78-9.77V490.26a9.82,9.82,0,0,1,9.78-9.76h237.6a9.79,9.79,0,0,1,9.76,9.76Z"/><path class="cls-10" d="M718.64,570.82V490.26a9.8,9.8,0,0,1,9.76-9.76H689.66a9.82,9.82,0,0,0-9.78,9.76v80.56a9.82,9.82,0,0,0,9.78,9.77H728.4A9.8,9.8,0,0,1,718.64,570.82Z"/><path class="cls-9" d="M901.88,799.64a9.8,9.8,0,0,1-9.76,9.77H724.81a9.78,9.78,0,0,1-9.76-9.77v-33a9.8,9.8,0,0,1,9.76-9.77H892.12a9.8,9.8,0,0,1,9.76,9.77Z"/><path class="cls-10" d="M753.8,799.64v-33a9.8,9.8,0,0,1,9.77-9.77H724.81a9.8,9.8,0,0,0-9.76,9.77v33a9.8,9.8,0,0,0,9.76,9.78h38.76A9.8,9.8,0,0,1,753.8,799.64Z"/></g></svg>