<svg id="Layer_1" data-name="Layer 1" xmlns="http://www.w3.org/2000/svg" viewBox="0 0 1000 1000"><defs><style>.cls-1{fill:#e6e7e8;}.cls-2{fill:#fff;}.cls-3{fill:#a3eaff;}.cls-4{fill:#264bc6;}.cls-5{fill:#1a8dfa;}.cls-6{fill:#393f60;}</style></defs><path class="cls-1" d="M915.45,477.56a30.92,30.92,0,0,0-30.88-30.89H836.25a322.07,322.07,0,0,0-42.47-102.34L828,310.11a30.9,30.9,0,0,0,0-43.68l-57.7-57.7a30.91,30.91,0,0,0-43.68,0l-34.21,34.21a322.62,322.62,0,0,0-102.34-42.47V152.16a30.93,30.93,0,0,0-30.89-30.89H477.57a30.93,30.93,0,0,0-30.89,30.89v48.31a322.53,322.53,0,0,0-102.34,42.47l-34.22-34.21a30.93,30.93,0,0,0-43.68,0l-57.7,57.71a30.9,30.9,0,0,0,0,43.68L243,344.34a322.43,322.43,0,0,0-42.47,102.34H152.18a30.92,30.92,0,0,0-30.89,30.89v81.6a30.93,30.93,0,0,0,30.89,30.89h48.31A322.53,322.53,0,0,0,243,692.4l-34.22,34.21a30.91,30.91,0,0,0,0,43.68l57.7,57.7c11.67,11.67,32,11.67,43.68,0l34.22-34.21a322,322,0,0,0,102.34,42.46v48.31a30.93,30.93,0,0,0,30.89,30.9h81.61a30.93,30.93,0,0,0,30.89-30.9V836.24a322.37,322.37,0,0,0,102.34-42.46L726.62,828c11.67,11.67,32,11.67,43.68,0l57.7-57.7a30.91,30.91,0,0,0,0-43.69l-34.2-34.21a322.53,322.53,0,0,0,42.45-102.33h48.32a30.93,30.93,0,0,0,30.88-30.89Z"/><path class="cls-2" d="M500,1000c276.14,0,500-223.86,500-500S776.14,0,500,0,0,223.86,0,500,223.86,1000,500,1000Z"/><path class="cls-3" d="M703,591.22c49.29-111-.71-240.88-111.67-290.18s-240.88.71-290.17,111.68.7,240.88,111.67,290.17S653.73,702.18,703,591.22Z"/><path class="cls-2" d="M502,306.7c117.3,0,213.11,91.87,219.47,207.58.22-4,.36-8.13.36-12.24,0-121.4-98.42-219.83-219.83-219.83S282.21,380.63,282.21,502c0,4.11.13,8.19.36,12.24C288.93,398.58,384.74,306.7,502,306.7Z"/><path class="cls-4" d="M891,542.84V461.23a22.72,22.72,0,0,0-22.73-22.72H813.31A315.27,315.27,0,0,0,767,326.91L805.9,288a22.72,22.72,0,0,0,0-32.13l-57.71-57.71a22.72,22.72,0,0,0-32.13,0l-38.88,38.89a315.76,315.76,0,0,0-111.61-46.3V135.85a22.72,22.72,0,0,0-22.72-22.72H461.24a22.73,22.73,0,0,0-22.73,22.72v54.92a315.71,315.71,0,0,0-111.6,46.3L288,198.18a22.74,22.74,0,0,0-32.14,0l-57.7,57.71a22.71,22.71,0,0,0,0,32.13l38.88,38.89a315.64,315.64,0,0,0-46.3,111.6H135.84a22.72,22.72,0,0,0-22.72,22.72v81.61a22.73,22.73,0,0,0,22.72,22.73h54.93a315.71,315.71,0,0,0,46.3,111.6l-38.89,38.88a22.74,22.74,0,0,0,0,32.14l57.71,57.7a22.72,22.72,0,0,0,32.13,0L326.91,767a315.64,315.64,0,0,0,111.6,46.3v54.92A22.72,22.72,0,0,0,461.23,891h81.61a22.72,22.72,0,0,0,22.73-22.72V813.31A315.71,315.71,0,0,0,677.17,767l38.88,38.88a22.74,22.74,0,0,0,32.14,0l57.7-57.7a22.74,22.74,0,0,0,0-32.14L767,677.17a315.42,315.42,0,0,0,46.3-111.6h54.92A22.73,22.73,0,0,0,891,542.84ZM502,721.87c-121.4,0-219.83-98.42-219.83-219.83S380.63,282.21,502,282.21,721.87,380.63,721.87,502,623.44,721.87,502,721.87Z"/><path class="cls-5" d="M410.76,606.15V397.93a17.59,17.59,0,0,1,26-15.47L628.57,486.58a17.59,17.59,0,0,1,0,30.92L436.74,621.62A17.6,17.6,0,0,1,410.76,606.15Z"/><path class="cls-6" d="M899.13,461.23a30.93,30.93,0,0,0-30.88-30.89H819.92A322.22,322.22,0,0,0,777.46,328l34.21-34.22a30.88,30.88,0,0,0,0-43.68L754,192.4a30.94,30.94,0,0,0-43.7,0l-34.2,34.21a322.37,322.37,0,0,0-102.34-42.46V135.84A30.93,30.93,0,0,0,542.85,105H461.24a30.92,30.92,0,0,0-30.89,30.89v48.31A322.22,322.22,0,0,0,328,226.61l-34.22-34.2a30.92,30.92,0,0,0-43.69,0l-57.7,57.7a30.94,30.94,0,0,0,0,43.69L226.62,328a322.22,322.22,0,0,0-42.46,102.33H135.84A30.92,30.92,0,0,0,105,461.24v81.61a30.93,30.93,0,0,0,30.88,30.89h48.32a322.47,322.47,0,0,0,42.46,102.34l-34.21,34.2a30.94,30.94,0,0,0,0,43.69l57.7,57.69c11.68,11.68,32,11.68,43.69,0L328,777.45a322.09,322.09,0,0,0,102.33,42.46v48.32a30.93,30.93,0,0,0,30.89,30.89h81.61a30.93,30.93,0,0,0,30.89-30.89V819.91a322.37,322.37,0,0,0,102.34-42.46l34.2,34.21c11.68,11.68,32,11.68,43.7,0L811.67,754a30.89,30.89,0,0,0,0-43.69l-34.21-34.22a322.48,322.48,0,0,0,42.47-102.33h48.32a30.93,30.93,0,0,0,30.88-30.89ZM882.8,542.84a14.57,14.57,0,0,1-14.55,14.56H813.32a8.17,8.17,0,0,0-8,6.54,306.37,306.37,0,0,1-45.11,108.72,8.18,8.18,0,0,0,1,10.28l38.89,38.88a14.57,14.57,0,0,1,0,20.59l-57.7,57.71a14.92,14.92,0,0,1-20.6,0L683,761.24a8.16,8.16,0,0,0-10.27-1A306.36,306.36,0,0,1,564,805.31a8.17,8.17,0,0,0-6.54,8v54.92a14.59,14.59,0,0,1-14.56,14.57H461.25a14.58,14.58,0,0,1-14.56-14.57V813.31a8.18,8.18,0,0,0-6.54-8A306.31,306.31,0,0,1,331.43,760.2a8.19,8.19,0,0,0-10.29,1l-38.89,38.88a14.91,14.91,0,0,1-20.59,0L204,742.43a14.61,14.61,0,0,1,0-20.61l38.89-38.88a8.18,8.18,0,0,0,1-10.28,306.31,306.31,0,0,1-45.11-108.72,8.18,8.18,0,0,0-8-6.54H135.84a14.57,14.57,0,0,1-14.56-14.56V461.23a14.58,14.58,0,0,1,14.56-14.56h54.93a8.18,8.18,0,0,0,8-6.54,306.32,306.32,0,0,1,45.1-108.72,8.16,8.16,0,0,0-1-10.28L204,282.24a14.59,14.59,0,0,1,0-20.59l57.71-57.71a14.6,14.6,0,0,1,20.59,0l38.89,38.89a8.14,8.14,0,0,0,10.28,1,306.32,306.32,0,0,1,108.72-45.1,8.18,8.18,0,0,0,6.54-8V135.84a14.58,14.58,0,0,1,14.56-14.57h81.61a14.58,14.58,0,0,1,14.56,14.57v54.92a8.18,8.18,0,0,0,6.54,8,306.28,306.28,0,0,1,108.73,45.11,8.19,8.19,0,0,0,10.28-1L721.84,204a14.57,14.57,0,0,1,20.59,0l57.7,57.71a14.57,14.57,0,0,1,0,20.59l-38.89,38.89a8.18,8.18,0,0,0-1,10.28,306.19,306.19,0,0,1,45.11,108.71,8.17,8.17,0,0,0,8,6.54h54.92a14.57,14.57,0,0,1,14.56,14.56v81.61Z"/><path class="cls-6" d="M502,274.05c-125.71,0-228,102.28-228,228S376.33,730,502,730a227.48,227.48,0,0,0,73.58-12.14,8.17,8.17,0,1,0-5.26-15.46A211.22,211.22,0,0,1,502,713.7c-116.71,0-211.66-95-211.66-211.67S385.33,290.38,502,290.38,713.71,385.32,713.71,502a209.45,209.45,0,0,1-21.91,93.88,8.16,8.16,0,1,0,14.62,7.25A225.65,225.65,0,0,0,730,502C730,376.33,627.76,274.05,502,274.05Z"/><path class="cls-6" d="M645.93,502a25.74,25.74,0,0,0-13.47-22.64L440.64,375.29a25.75,25.75,0,0,0-38.05,22.64V606.15a25.71,25.71,0,0,0,38,22.64L632.46,524.68A25.74,25.74,0,0,0,645.93,502Zm-21.25,8.29L432.84,614.44a9.43,9.43,0,0,1-13.93-8.29V397.93a9.3,9.3,0,0,1,4.61-8.11,9.69,9.69,0,0,1,4.85-1.36,9.2,9.2,0,0,1,4.46,1.18L624.67,493.75a9.44,9.44,0,0,1,0,16.58Z"/></svg>