<?xml version="1.0" encoding="UTF-8" standalone="no"?>
<svg
   xmlns:dc="http://purl.org/dc/elements/1.1/"
   xmlns:cc="http://creativecommons.org/ns#"
   xmlns:rdf="http://www.w3.org/1999/02/22-rdf-syntax-ns#"
   xmlns:svg="http://www.w3.org/2000/svg"
   xmlns="http://www.w3.org/2000/svg"
   xmlns:xlink="http://www.w3.org/1999/xlink"
   viewBox="0 0 198.72 163.474"
   id="svg101"
   height="163.474"
   width="198.72"
   version="1.1">
  <metadata
     id="metadata105">
    <rdf:RDF>
      <cc:Work
         rdf:about="">
        <dc:format>image/svg+xml</dc:format>
        <dc:type
           rdf:resource="http://purl.org/dc/dcmitype/StillImage" />
      </cc:Work>
    </rdf:RDF>
  </metadata>
  <path
     id="path2"
     style="fill:#ffffff;fill-rule:evenodd"
     d="m 53.2536,79.996 11.0271,-8.1511 -11.2028,-8.13 -0.0026,0.0062 -9.1389,-6.383 2.3449,10.0148 3.9676,3.1153 -2.4602,5.9643 -0.0017,6e-4 0.0012,9e-4 -6e-4,0.0014 0.002,-6e-4 z m -25.3581,-10.0457 10.7742,-7.6227 5.4686,3.1785 -2.573,6.1773 4.4229,3.3094 2.1614,9.8861 -9.2515,-6.7918 -0.0051,0.0125 z" />
  <defs
     id="defs10">
    <linearGradient
       id="grad1">
      <stop
         id="stop4"
         stop-opacity="1.0000"
         stop-color="#0238ae"
         offset="0%" />
      <stop
         id="stop6"
         stop-opacity="1.0000"
         stop-color="#ffffff"
         offset="100%" />
    </linearGradient>
    <linearGradient
       gradientUnits="objectBoundingBox"
       gradientTransform="rotate(46,0.5,0.5)"
       y2="1"
       x2="0"
       y1="0"
       x1="0"
       id="grad2"
       xlink:href="#grad1" />
  </defs>
  <path
     id="path12"
     style="fill:url(#grad2)"
     d="m 28.2665,70.0325 10.3876,-7.3126 5.1001,3.0751 z" />
  <defs
     id="defs20">
    <linearGradient
       id="grad3">
      <stop
         id="stop14"
         stop-opacity="1.0000"
         stop-color="#0249b4"
         offset="0%" />
      <stop
         id="stop16"
         stop-opacity="1.0000"
         stop-color="#ffffff"
         offset="100%" />
    </linearGradient>
    <linearGradient
       gradientUnits="objectBoundingBox"
       gradientTransform="rotate(-46,0.5,0.5)"
       y2="1"
       x2="0"
       y1="0"
       x1="0"
       id="grad4"
       xlink:href="#grad3" />
  </defs>
  <path
     id="path22"
     style="fill:url(#grad4)"
     d="M 43.7156,65.8338 38.7434,77.7719 28.3181,70.0466 43.6124,65.8621 Z" />
  <defs
     id="defs30">
    <linearGradient
       id="grad5">
      <stop
         id="stop24"
         stop-opacity="1.0000"
         stop-color="#0352b9"
         offset="0%" />
      <stop
         id="stop26"
         stop-opacity="1.0000"
         stop-color="#ffffff"
         offset="100%" />
    </linearGradient>
    <linearGradient
       gradientUnits="objectBoundingBox"
       gradientTransform="rotate(144,0.5,0.5)"
       y2="1"
       x2="0"
       y1="0"
       x1="0"
       id="grad6"
       xlink:href="#grad5" />
  </defs>
  <path
     id="path32"
     style="fill:url(#grad6)"
     d="m 38.7434,77.7719 9.0997,6.6807 -2.025,-9.2625 -4.5434,-3.3996 z" />
  <defs
     id="defs40">
    <linearGradient
       id="grad7">
      <stop
         id="stop34"
         stop-opacity="1.0000"
         stop-color="#0350b8"
         offset="0%" />
      <stop
         id="stop36"
         stop-opacity="1.0000"
         stop-color="#ffffff"
         offset="100%" />
    </linearGradient>
    <linearGradient
       gradientUnits="objectBoundingBox"
       gradientTransform="rotate(-116,0.5,0.5)"
       y2="1"
       x2="0"
       y1="0"
       x1="0"
       id="grad8"
       xlink:href="#grad7" />
  </defs>
  <path
     id="path42"
     style="fill:url(#grad8)"
     d="m 44.2009,57.7145 2.2125,9.4502 4.0124,3.1501 2.6252,-6.2629 z" />
  <defs
     id="defs50">
    <linearGradient
       id="grad9">
      <stop
         id="stop44"
         stop-opacity="1.0000"
         stop-color="#0350b8"
         offset="0%" />
      <stop
         id="stop46"
         stop-opacity="1.0000"
         stop-color="#ffffff"
         offset="100%" />
    </linearGradient>
    <linearGradient
       gradientUnits="objectBoundingBox"
       gradientTransform="rotate(-45,0.5,0.5)"
       y2="1"
       x2="0"
       y1="0"
       x1="0"
       id="grad10"
       xlink:href="#grad9" />
  </defs>
  <path
     id="path52"
     style="fill:url(#grad10)"
     d="m 50.4493,70.3148 -2.4749,6.0001 15.9001,-4.4252 -10.8,-7.8378 z" />
  <defs
     id="defs60">
    <linearGradient
       id="grad11">
      <stop
         id="stop54"
         stop-opacity="1.0000"
         stop-color="#0541b2"
         offset="0%" />
      <stop
         id="stop56"
         stop-opacity="1.0000"
         stop-color="#ffffff"
         offset="100%" />
    </linearGradient>
    <linearGradient
       gradientUnits="objectBoundingBox"
       gradientTransform="rotate(6,0.5,0.5)"
       y2="1"
       x2="0"
       y1="0"
       x1="0"
       id="grad12"
       xlink:href="#grad11" />
  </defs>
  <path
     id="path62"
     style="fill:url(#grad12)"
     d="M 53.1859,79.7352 63.8745,71.9133 47.9744,76.3384 Z" />
  <g
     id="Layer1000">
    <path
       id="path64"
       style="fill:#ffffff;fill-rule:evenodd"
       d="m 73.4417,72.8274 c 0,0.9627 0,1.925 0,2.8877 v 0.3365 L 73.11,75.9943 c -3.7669,-0.6494 -6.9128,-2.8372 -7.7799,-6.7107 -0.6829,-3.051 0.2993,-6.4956 2.6189,-8.6222 1.4513,-1.3306 3.2871,-2.0038 5.2693,-1.9542 3.7976,0.2999 7.045,2.732 8.034,6.4673 1.2356,4.6658 -1.5837,8.6139 -5.7246,10.5352 l -0.2367,0.1097 -0.129,-0.2265 c -0.5125,-0.9 -1.025,-1.8 -1.5375,-2.7 l -0.1754,-0.3081 0.339,-0.1032 c 2.0718,-0.6321 3.4608,-2.2051 3.7335,-4.3625 0.2259,-1.7858 -0.39,-3.8092 -1.832,-4.9533 -0.4584,-0.3637 -0.9817,-0.6196 -1.552,-0.7517 -0.5689,-0.1315 -0.8793,-0.1162 -1.4454,0.0116 -1.7665,0.3983 -3.1773,1.4426 -3.7102,3.2193 -0.866,2.8874 1.0034,6.6334 4.1998,6.8998 l 0.2599,0.0218 z" />
  </g>
  <path
     id="path67"
     style="fill:#727376;fill-rule:evenodd"
     d="M 73.1582,72.8274 C 68.0306,72.4 66.1292,63.6151 72.6299,62.149 c 0.6097,-0.1374 0.9504,-0.1544 1.5715,-0.011 4.4509,1.0298 5.3835,8.8713 -0.3305,10.6146 0.5125,0.9 1.025,1.8 1.5375,2.7 C 84.8883,71.0541 81.87,59.675 73.1959,58.9898 64.273,58.7687 61.4407,73.6943 73.1582,75.7151 c 0,-0.9627 0,-1.925 0,-2.8877 z" />
  <g
     id="Layer1001">
    <path
       id="path69"
       style="fill:#ffffff;fill-rule:evenodd"
       d="m 94.4884,64.8238 c -1.0698,-1.7835 -2.8633,-3.215 -5.0519,-2.6997 -2.0345,0.479 -3.3132,2.3899 -3.5345,4.3872 -0.0562,0.5057 -0.0908,1.0936 -0.0584,1.6004 0.0209,0.3283 0.0807,0.6531 0.1749,0.968 0.1749,0.5865 0.4671,1.1367 0.8416,1.62 0.7599,0.982 1.8955,1.7306 3.1382,1.9029 1.9925,0.2764 3.4815,-0.9773 4.4113,-2.626 l 0.1511,-0.2678 0.2545,0.1723 c 0.8501,0.5749 1.7002,1.15 2.5501,1.7252 l 0.2471,0.1672 -0.1794,0.2381 c -5.1134,6.7828 -13.7293,4.3787 -15.2481,-3.8188 -0.2214,-1.1948 -0.1114,-2.1113 0.1624,-3.2822 0.6809,-2.9115 2.6161,-5.1727 5.5239,-6.0041 3.6828,-1.0528 7.651,0.5335 9.6519,3.7857 l 0.1381,0.2245 -0.2137,0.1539 c -0.8501,0.6125 -1.7003,1.2251 -2.5501,1.8374 l -0.2503,0.1803 z" />
  </g>
  <path
     id="path72"
     style="fill:#727376;fill-rule:evenodd"
     d="m 94.7316,64.6781 c -3.0813,-5.1369 -8.5893,-2.9041 -9.1114,1.802 -0.0516,0.47 -0.089,1.1809 -0.0595,1.6498 0.2599,4.0609 6.0607,7.3681 9.0958,1.9859 0.8501,0.5752 1.6999,1.15 2.55,1.7252 -4.9325,6.5432 -13.2585,4.3098 -14.743,-3.6998 -0.214,-1.1571 -0.1097,-2.0129 0.1599,-3.166 1.7399,-7.4404 11.056,-7.9898 14.6582,-2.1345 -0.8501,0.6126 -1.6999,1.2248 -2.55,1.8374 z" />
  <g
     id="Layer1002">
    <path
       id="path74"
       style="fill:#ffffff;fill-rule:evenodd"
       d="m 109.8969,64.8757 c -1.0698,-1.7836 -2.8632,-3.2151 -5.0519,-2.6997 -2.0344,0.479 -3.3131,2.3899 -3.5345,4.3871 -0.0561,0.5058 -0.0907,1.0937 -0.0584,1.6005 0.021,0.3282 0.0808,0.6531 0.1749,0.968 0.1749,0.5865 0.4672,1.1367 0.8416,1.62 0.76,0.9819 1.8956,1.7306 3.1383,1.9029 1.9924,0.2764 3.4815,-0.9774 4.4112,-2.626 l 0.1511,-0.2679 0.2546,0.1724 c 0.8501,0.5748 1.7002,1.15 2.55,1.7251 l 0.2472,0.1673 -0.1794,0.2381 c -5.1134,6.7827 -13.7293,4.3787 -15.2482,-3.8188 -0.2213,-1.1948 -0.1114,-2.1113 0.1625,-3.2823 0.6809,-2.9114 2.6161,-5.1726 5.5238,-6.004 3.6828,-1.0528 7.651,0.5334 9.652,3.7856 l 0.1381,0.2245 -0.2138,0.154 c -0.8501,0.6125 -1.7002,1.2251 -2.55,1.8374 l -0.2503,0.1803 z" />
  </g>
  <path
     id="path77"
     style="fill:#727376;fill-rule:evenodd"
     d="m 110.1402,64.73 c -3.0813,-5.137 -8.5893,-2.9041 -9.1114,1.802 -0.0516,0.47 -0.0891,1.1809 -0.0596,1.6497 0.26,4.0609 6.0608,7.3681 9.0958,1.986 0.8501,0.5751 1.7,1.15 2.5501,1.7252 -4.9326,6.5432 -13.2585,4.3097 -14.743,-3.6998 -0.214,-1.1571 -0.1097,-2.0129 0.1599,-3.166 1.7399,-7.4404 11.0559,-7.9898 14.6582,-2.1345 -0.8501,0.6125 -1.6999,1.2248 -2.55,1.8374 z" />
  <g
     id="Layer1003">
    <path
       id="path79"
       style="fill:#ffffff;fill-rule:evenodd"
       d="m 124.3148,72.7098 -6.7073,0.1066 -1.1279,2.895 -4.093,-0.0882 6.5925,-16.675 4.1171,-0.1772 -4.3968,10.5219 4.5921,0.0318 -2.2346,-5.5503 2.5609,-2.7405 6.1469,14.7526 -4.1392,-0.0439 z" />
  </g>
  <path
     id="path82"
     style="fill:#727376;fill-rule:evenodd"
     d="m 123.5251,61.5484 -2.1376,2.2875 2.3249,5.7751 -5.4374,-0.0375 4.3875,-10.5001 -3.4875,0.15 -6.3751,16.1252 3.4875,0.0751 1.125,-2.8877 7.0875,-0.1125 1.3127,3.0376 3.5249,0.0374 z" />
  <g
     id="Layer1004">
    <path
       id="path84"
       style="fill:#ffffff;fill-rule:evenodd"
       d="m 133.7054,67.1729 -0.0348,8.7392 -3.5663,-0.2228 0.0385,-16.6374 h 2.6808 l 4.9697,7.1099 4.293,-7.2763 3.1074,0.3064 -0.0871,2.4441 -7.3505,11.3711 z" />
  </g>
  <path
     id="path87"
     style="fill:#727376;fill-rule:evenodd"
     d="m 144.826,61.5478 0.0749,-2.0999 -2.6623,-0.2625 -4.4252,7.4999 -5.1375,-7.3499 h -2.2502 l -0.0374,16.0877 2.9999,0.1874 0.0374,-9.3376 4.322,6.2251 z" />
  <g
     id="Layer1005">
    <path
       id="path89"
       style="fill:#ffffff;fill-rule:evenodd"
       d="m 145.2084,64.1931 -0.1015,11.4761 h -3.6836 l 0.1973,-8.7132 z" />
  </g>
  <path
     id="path92"
     style="fill:#727376;fill-rule:evenodd"
     d="m 144.9198,64.7731 -3.0189,2.3249 -0.1876,8.2877 h 3.1127 z" />
  <g
     id="Layer1006">
    <path
       id="path94"
       style="fill:#ffffff;fill-rule:evenodd"
       d="m 66.8341,78.4446 v 0.8858 h 2.0994 v 0.7299 h -2.0994 v 1.0134 h 2.3332 v 0.7299 h -3.1218 v -4.089 h 3.0314 v 0.73 z m 10.1549,1.9315 v -2.6615 h 0.767 v 4.089 H 77.0213 L 75.242,79.1419 v 2.6617 h -0.7671 v -4.089 h 0.7348 z m 9.1267,0.4388 V 80.31 h -1.1163 v -0.7299 h 1.8938 v 1.6203 l -0.0535,0.0425 c -0.2435,0.1939 -0.5117,0.3563 -0.8037,0.4666 -0.2761,0.1043 -0.5641,0.1579 -0.8594,0.1579 -0.3807,0 -0.7467,-0.0794 -1.0846,-0.2563 -0.3285,-0.172 -0.5816,-0.4243 -0.7511,-0.7542 -0.173,-0.3371 -0.2495,-0.7016 -0.2495,-1.0792 0,-0.3841 0.0794,-0.7529 0.2463,-1.0987 0.161,-0.3342 0.3997,-0.6015 0.7285,-0.7776 0.332,-0.1777 0.6968,-0.2505 1.0715,-0.2505 0.2733,0 0.5446,0.0416 0.7988,0.144 0.2251,0.0907 0.4289,0.2236 0.5809,0.4152 0.1556,0.1962 0.2522,0.4357 0.3137,0.6767 l 0.0346,0.1352 -0.7225,0.1973 -0.0394,-0.1327 c -0.0417,-0.1395 -0.1009,-0.2954 -0.1897,-0.4119 -0.0776,-0.102 -0.1887,-0.1715 -0.3055,-0.2208 -0.1486,-0.0629 -0.3076,-0.089 -0.4683,-0.089 -0.1829,0 -0.3719,0.0238 -0.5417,0.0947 -0.1338,0.0555 -0.2571,0.1327 -0.3546,0.2409 -0.0896,0.0998 -0.1627,0.2118 -0.2138,0.3357 -0.0935,0.2276 -0.1346,0.4677 -0.1346,0.7132 0,0.2667 0.0371,0.5496 0.1593,0.79 0.1003,0.1975 0.2472,0.3475 0.4459,0.4461 0.2041,0.1015 0.4198,0.152 0.6474,0.152 0.2018,0 0.3972,-0.04 0.5842,-0.1162 0.127,-0.0519 0.2705,-0.1197 0.3833,-0.2064 z m 6.9366,-2.3703 v 0.8858 h 2.0994 v 0.7299 h -2.0994 v 1.0134 h 2.3332 v 0.7299 h -3.1218 v -4.089 h 3.0314 v 0.73 z m 10.1549,1.9315 v -2.6615 h 0.767 v 4.089 h -0.7347 l -1.7793,-2.6617 v 2.6617 h -0.7671 v -4.089 h 0.7348 z m 7.0395,-1.0936 h 1.6833 v -1.5679 h 0.7883 v 4.089 H 111.93 v -1.7912 h -1.6833 v 1.7912 h -0.7883 v -4.089 h 0.7883 z m 9.8124,1.3677 h -1.4051 l -0.413,1.1534 h -0.8399 l 1.5684,-4.089 h 0.7464 l 1.6648,4.089 h -0.8813 z m 8.4714,-0.6582 c 0.008,0.0071 0.017,0.0145 0.0249,0.0218 0.1712,0.1559 0.3169,0.3408 0.4408,0.5358 l 0.7966,1.254 h -0.965 l -0.5448,-0.8577 c -0.1102,-0.1738 -0.227,-0.3518 -0.354,-0.5137 -0.0593,-0.0754 -0.1401,-0.1703 -0.2214,-0.2228 -0.0578,-0.0374 -0.1191,-0.0655 -0.1828,-0.0813 -0.0746,-0.0153 -0.1735,-0.0148 -0.2498,-0.0148 h -0.441 v 1.6903 h -0.7886 v -4.089 h 1.8283 c 0.2608,0 0.5791,0.0173 0.8243,0.1123 0.2115,0.0816 0.3748,0.2265 0.4927,0.4198 0.1204,0.1976 0.1783,0.4153 0.1783,0.6469 0,0.2979 -0.0961,0.5632 -0.3008,0.7804 -0.1465,0.1553 -0.3359,0.2548 -0.5377,0.318 z m 6.3281,1.8116 v -4.089 h 0.7883 v 4.089 z m 8.1751,-1.1534 h -1.4052 l -0.413,1.1534 h -0.8399 l 1.5684,-4.089 h 0.7464 l 1.6648,4.089 h -0.8813 z m -24.1274,-0.6928 h 0.8878 l -0.3248,-0.8631 c -0.0423,-0.1123 -0.0837,-0.2254 -0.1236,-0.3391 -0.0284,0.0933 -0.0596,0.1854 -0.0939,0.2767 z m 7.9277,-0.5632 h 0.9388 c 0.1533,0 0.3444,-0.0097 0.4898,-0.063 0.0927,-0.0343 0.1701,-0.0878 0.2234,-0.1717 0.0521,-0.0817 0.0788,-0.1681 0.0788,-0.2651 0,-0.1363 -0.0454,-0.2474 -0.1477,-0.3387 -0.1304,-0.1162 -0.3557,-0.1378 -0.5221,-0.1378 h -1.061 z m 15.0468,0.5632 h 0.8878 l -0.3248,-0.8631 c -0.0423,-0.1123 -0.0836,-0.2254 -0.1236,-0.3391 -0.0284,0.0933 -0.0595,0.1854 -0.0938,0.2767 z" />
  </g>
  <text
     id="text99"
     y="81.7257"
     x="66.187302">
    <tspan
       style="font-size:5.5px;font-family:Arial;fill:#727376"
       id="tspan97"
       font-size="5.5000">E N G E N H A R I A</tspan>
  </text>
</svg>
