<svg width="160" height="160" viewBox="0 0 160 160" fill="none" xmlns="http://www.w3.org/2000/svg">
<g clip-path="url(#clip0)">
<path d="M83.4384 156.563C125.723 156.563 160 122.285 160 80C160 37.7152 125.723 3.4384 83.4384 3.4384C41.1536 3.4384 6.88 37.7168 6.88 80C6.88 122.283 41.1536 156.563 83.4384 156.563Z" fill="white"/>
<path d="M82.6351 112.042H58.0383V124.926H82.6351V112.042Z" fill="#2653A0"/>
<path d="M64.2383 112.042H58.0383V124.926H64.2383V112.042Z" fill="#163989"/>
<path d="M99.0192 124.616H39.8576C39.4332 124.616 39.0263 124.785 38.7262 125.085C38.4261 125.385 38.2576 125.792 38.2576 126.216V134.216C38.2576 134.64 38.4261 135.047 38.7262 135.347C39.0263 135.647 39.4332 135.816 39.8576 135.816H99.0144L99.0192 124.616Z" fill="#03277C"/>
<path d="M44.4704 134.202V126.202C44.4704 125.777 44.6389 125.37 44.939 125.07C45.2391 124.77 45.646 124.602 46.0704 124.602H39.8576C39.4332 124.602 39.0263 124.77 38.7262 125.07C38.4261 125.37 38.2576 125.777 38.2576 126.202V134.202C38.2576 134.626 38.4261 135.033 38.7262 135.333C39.0263 135.633 39.4332 135.802 39.8576 135.802H46.08C45.6556 135.802 45.2487 135.633 44.9486 135.333C44.6485 135.033 44.48 134.626 44.48 134.202H44.4704Z" fill="#192363"/>
<path d="M139.08 18.4272H1.6C1.17565 18.4272 0.768687 18.5958 0.468629 18.8958C0.168571 19.1959 0 19.6029 0 20.0272L0 110.76C0 111.184 0.168571 111.591 0.468629 111.891C0.768687 112.191 1.17565 112.36 1.6 112.36H99.0144V64.616C99.0144 64.0368 99.2445 63.4813 99.6541 63.0717C100.064 62.6621 100.619 62.432 101.198 62.432H140.669V20.0208C140.667 19.5995 140.499 19.1959 140.202 18.8975C139.904 18.5991 139.501 18.4301 139.08 18.4272Z" fill="#03277C"/>
<path d="M6.99841 96.4112C6.99841 96.6658 7.09956 96.91 7.27959 97.09C7.45963 97.27 7.70381 97.3712 7.95841 97.3712H99.0176V64.616C99.0176 64.0368 99.2477 63.4813 99.6573 63.0717C100.067 62.6621 100.622 62.432 101.202 62.432H133.682V34.0624H6.99841V96.4112Z" fill="white"/>
<path d="M13.2 96.4112V34.0624H6.99841V96.4112C6.99841 96.6658 7.09956 96.91 7.27959 97.09C7.45963 97.27 7.70381 97.3712 7.95841 97.3712H14.16C13.9054 97.3712 13.6612 97.27 13.4812 97.09C13.3012 96.91 13.2 96.6658 13.2 96.4112Z" fill="#D9EAFC"/>
<path d="M70.3376 109.138C71.1892 109.138 72.0219 108.886 72.7303 108.414C73.4388 107.941 73.9911 107.269 74.3175 106.482C74.644 105.696 74.7298 104.83 74.5641 103.995C74.3985 103.159 73.9888 102.392 73.387 101.789C72.7851 101.187 72.0181 100.776 71.1829 100.61C70.3477 100.443 69.4819 100.528 68.6949 100.853C67.908 101.179 67.2352 101.731 66.7618 102.438C66.2883 103.146 66.0355 103.979 66.0352 104.83C66.0347 105.972 66.4877 107.067 67.2945 107.875C68.1014 108.683 69.1959 109.137 70.3376 109.138Z" fill="#2653A0"/>
<path d="M99.0176 69.7328H82.3232C82.0745 69.7336 81.8363 69.8329 81.6606 70.0089C81.4849 70.1849 81.386 70.4233 81.3856 70.672V89.3168C81.3865 89.565 81.4856 89.8029 81.6613 89.9783C81.837 90.1537 82.075 90.2524 82.3232 90.2528H99.0176V69.7328Z" fill="#C3DDF4"/>
<path d="M87.5856 89.3088V70.6656C87.586 70.4169 87.6849 70.1785 87.8606 70.0025C88.0363 69.8265 88.2745 69.7272 88.5232 69.7264H82.3232C82.0745 69.7272 81.8363 69.8265 81.6606 70.0025C81.4849 70.1785 81.386 70.4169 81.3856 70.6656V89.3088C81.386 89.5574 81.485 89.7956 81.6607 89.9713C81.8364 90.1471 82.0747 90.246 82.3232 90.2464H88.5232C88.2748 90.2456 88.0368 90.1465 87.8612 89.9709C87.6855 89.7952 87.5865 89.5572 87.5856 89.3088Z" fill="#AEC1ED"/>
<path d="M101.206 62.4288H115.778V41.9952C115.775 41.5813 115.609 41.185 115.316 40.8926C115.023 40.6002 114.627 40.4353 114.213 40.4336H26.4639C26.0503 40.4353 25.6541 40.6003 25.3616 40.8928C25.0691 41.1853 24.904 41.5816 24.9023 41.9952V62.7856C24.9036 63.1995 25.0685 63.5962 25.361 63.889C25.6536 64.1818 26.05 64.3471 26.4639 64.3488H99.0399C99.1044 63.8195 99.3603 63.332 99.7593 62.9783C100.158 62.6247 100.673 62.4292 101.206 62.4288Z" fill="#C3DDF4"/>
<path d="M31.1023 62.784V41.9952C31.1036 41.5814 31.2685 41.185 31.5611 40.8924C31.8537 40.5998 32.2502 40.4349 32.6639 40.4336H26.4639C26.05 40.4344 25.6533 40.5992 25.3607 40.8919C25.068 41.1846 24.9032 41.5813 24.9023 41.9952V62.784C24.9032 63.1982 25.0679 63.5952 25.3605 63.8884C25.653 64.1816 26.0497 64.3471 26.4639 64.3488H32.6639C32.2497 64.3471 31.853 64.1816 31.5605 63.8884C31.2679 63.5952 31.1032 63.1982 31.1023 62.784Z" fill="#AEC1ED"/>
<path d="M132.72 26.56H7.95683C7.70222 26.56 7.45804 26.6611 7.278 26.8412C7.09797 27.0212 6.99683 27.2654 6.99683 27.52V34.3824H133.675V27.52C133.675 27.2662 133.575 27.0228 133.396 26.8429C133.217 26.663 132.974 26.5613 132.72 26.56Z" fill="#74AEFF"/>
<path d="M14.16 26.56H7.95683C7.70222 26.56 7.45804 26.6611 7.278 26.8412C7.09797 27.0212 6.99683 27.2654 6.99683 27.52V34.3824H13.2V27.52C13.2 27.2654 13.3012 27.0212 13.4812 26.8412C13.6612 26.6611 13.9054 26.56 14.16 26.56Z" fill="#5E93FF"/>
<path opacity="0.25" d="M53.6 74.6816H27.2928C26.7046 74.633 26.1562 74.3649 25.7564 73.9307C25.3566 73.4965 25.1346 72.9278 25.1346 72.3376C25.1346 71.7474 25.3566 71.1787 25.7564 70.7445C26.1562 70.3103 26.7046 70.0422 27.2928 69.9936H53.6C54.215 69.9556 54.8204 70.1605 55.286 70.5641C55.7515 70.9678 56.04 71.5381 56.0895 72.1523C56.139 72.7665 55.9454 73.3756 55.5505 73.8486C55.1556 74.3216 54.5908 74.6207 53.9776 74.6816C53.8519 74.6912 53.7257 74.6912 53.6 74.6816Z" fill="black"/>
<path opacity="0.25" d="M53.6 82.3344H27.2928C26.7046 82.2858 26.1562 82.0177 25.7564 81.5835C25.3566 81.1493 25.1346 80.5806 25.1346 79.9904C25.1346 79.4002 25.3566 78.8315 25.7564 78.3973C26.1562 77.9631 26.7046 77.695 27.2928 77.6464H53.6C54.215 77.6084 54.8204 77.8133 55.286 78.2169C55.7515 78.6206 56.04 79.1909 56.0895 79.8051C56.139 80.4193 55.9454 81.0284 55.5505 81.5014C55.1556 81.9744 54.5908 82.2735 53.9776 82.3344C53.8519 82.344 53.7257 82.344 53.6 82.3344Z" fill="black"/>
<path opacity="0.25" d="M53.6 89.9856H27.2928C26.7031 89.9393 26.1525 89.6724 25.7509 89.2381C25.3493 88.8037 25.1262 88.2339 25.1262 87.6424C25.1262 87.0509 25.3493 86.4811 25.7509 86.0467C26.1525 85.6124 26.7031 85.3455 27.2928 85.2992H53.6C53.9077 85.2744 54.2173 85.3105 54.5111 85.4053C54.8048 85.5002 55.0771 85.652 55.3122 85.852C55.5473 86.0521 55.7407 86.2965 55.8814 86.5713C56.022 86.8461 56.1072 87.1459 56.132 87.4536C56.1568 87.7613 56.1207 88.0709 56.0259 88.3647C55.931 88.6584 55.7792 88.9307 55.5792 89.1658C55.3791 89.4009 55.1347 89.5943 54.8599 89.735C54.5851 89.8756 54.2853 89.9608 53.9776 89.9856C53.852 89.9968 53.7256 89.9968 53.6 89.9856Z" fill="black"/>
<path opacity="0.25" d="M74.24 74.6816H60.6992C60.111 74.633 59.5625 74.3649 59.1627 73.9307C58.7629 73.4965 58.541 72.9278 58.541 72.3376C58.541 71.7474 58.7629 71.1787 59.1627 70.7445C59.5625 70.3103 60.111 70.0423 60.6992 69.9936H74.24C74.8545 69.9567 75.459 70.1622 75.9237 70.566C76.3884 70.9698 76.6762 71.5397 76.7255 72.1533C76.7747 72.767 76.5813 73.3755 76.1869 73.8482C75.7925 74.3209 75.2285 74.6201 74.616 74.6816C74.4908 74.6912 74.3651 74.6912 74.24 74.6816Z" fill="black"/>
<path opacity="0.25" d="M74.24 82.3344H60.6992C60.111 82.2858 59.5625 82.0177 59.1627 81.5835C58.7629 81.1493 58.541 80.5806 58.541 79.9904C58.541 79.4002 58.7629 78.8315 59.1627 78.3973C59.5625 77.9631 60.111 77.695 60.6992 77.6464H74.24C74.8545 77.6095 75.459 77.815 75.9237 78.2188C76.3884 78.6226 76.6762 79.1925 76.7255 79.8061C76.7747 80.4198 76.5813 81.0283 76.1869 81.501C75.7925 81.9737 75.2285 82.2729 74.616 82.3344C74.4908 82.344 74.3651 82.344 74.24 82.3344Z" fill="black"/>
<path opacity="0.25" d="M74.24 89.9856H60.6992C60.1094 89.9393 59.5588 89.6724 59.1572 89.2381C58.7556 88.8037 58.5326 88.2339 58.5326 87.6424C58.5326 87.0509 58.7556 86.4811 59.1572 86.0467C59.5588 85.6124 60.1094 85.3455 60.6992 85.2992H74.24C74.5477 85.2745 74.8572 85.3107 75.151 85.4056C75.4447 85.5006 75.7169 85.6524 75.9519 85.8526C76.187 86.0527 76.3803 86.2972 76.5208 86.572C76.6614 86.8468 76.7465 87.1467 76.7712 87.4544C76.7959 87.7621 76.7597 88.0717 76.6647 88.3654C76.5698 88.6591 76.4179 88.9313 76.2178 89.1664C76.0177 89.4014 75.7732 89.5947 75.4984 89.7353C75.2235 89.8759 74.9237 89.9609 74.616 89.9856C74.4909 89.9968 74.365 89.9968 74.24 89.9856Z" fill="black"/>
<path d="M157.501 62.1168C158.163 62.1189 158.797 62.3829 159.266 62.8511C159.734 63.3194 159.998 63.9538 160 64.616V140.17C159.998 140.832 159.734 141.467 159.265 141.935C158.796 142.403 158.162 142.667 157.499 142.669H101.206C100.544 142.667 99.909 142.403 99.4405 141.935C98.9719 141.467 98.7077 140.832 98.7056 140.17V64.616C98.7077 63.9535 98.9719 63.3189 99.4405 62.8506C99.909 62.3823 100.544 62.1185 101.206 62.1168H157.501Z" fill="#2653A0"/>
<path d="M105.491 132.853C105.077 132.852 104.68 132.686 104.388 132.393C104.095 132.101 103.93 131.704 103.93 131.29V68.496C103.93 68.0818 104.095 67.6848 104.388 67.3916C104.68 67.0984 105.077 66.9329 105.491 66.9312H153.218C153.632 66.9329 154.028 67.0984 154.321 67.3916C154.614 67.6848 154.778 68.0818 154.779 68.496V131.29C154.778 131.704 154.614 132.101 154.321 132.393C154.028 132.686 153.632 132.852 153.218 132.853H105.491Z" fill="white"/>
<path d="M110.13 131.29V68.496C110.131 68.0817 110.296 67.6846 110.589 67.3915C110.882 67.0984 111.278 66.9329 111.693 66.9312H105.491C105.077 66.9329 104.68 67.0984 104.388 67.3916C104.095 67.6848 103.93 68.0818 103.93 68.496V131.29C103.93 131.704 104.095 132.101 104.388 132.393C104.68 132.686 105.077 132.852 105.491 132.853H111.693C111.279 132.852 110.882 132.686 110.589 132.394C110.296 132.101 110.131 131.704 110.13 131.29Z" fill="#D9EAFC"/>
<path d="M126.429 139.102C126.015 139.101 125.618 138.936 125.325 138.643C125.033 138.35 124.868 137.953 124.867 137.539V136.941C124.868 136.527 125.033 136.13 125.325 135.837C125.618 135.544 126.015 135.379 126.429 135.378H132.28C132.694 135.379 133.091 135.544 133.383 135.837C133.676 136.13 133.841 136.527 133.842 136.941V137.549C133.84 137.963 133.675 138.359 133.383 138.652C133.09 138.944 132.694 139.109 132.28 139.11L126.429 139.102Z" fill="#2653A0"/>
<path d="M154.779 72.96V68.496C154.778 68.0818 154.614 67.6848 154.321 67.3916C154.028 67.0984 153.632 66.9329 153.218 66.9312H105.491C105.077 66.9329 104.68 67.0984 104.388 67.3916C104.095 67.6848 103.93 68.0818 103.93 68.496V72.96H154.779Z" fill="#74AEFF"/>
<path d="M111.693 66.9312H105.491C105.077 66.9329 104.68 67.0984 104.388 67.3916C104.095 67.6848 103.93 68.0818 103.93 68.496V72.96H110.13V68.496C110.131 68.0817 110.296 67.6846 110.589 67.3915C110.882 67.0984 111.278 66.9329 111.693 66.9312Z" fill="#5E93FF"/>
<path opacity="0.25" d="M140 101.542H118.702C118.088 101.579 117.483 101.374 117.019 100.97C116.554 100.566 116.266 99.9963 116.217 99.3827C116.168 98.769 116.361 98.1605 116.755 97.6878C117.15 97.2152 117.714 96.9159 118.326 96.8544C118.451 96.8448 118.577 96.8448 118.702 96.8544H140C140.588 96.9031 141.137 97.1711 141.536 97.6053C141.936 98.0395 142.158 98.6082 142.158 99.1984C142.158 99.7886 141.936 100.357 141.536 100.792C141.137 101.226 140.588 101.494 140 101.542Z" fill="black"/>
<path opacity="0.25" d="M140 108.77H118.702C118.088 108.807 117.483 108.601 117.019 108.197C116.554 107.793 116.266 107.224 116.217 106.61C116.168 105.996 116.361 105.388 116.755 104.915C117.15 104.442 117.714 104.143 118.326 104.082C118.451 104.072 118.577 104.072 118.702 104.082H140C140.588 104.13 141.137 104.398 141.536 104.833C141.936 105.267 142.158 105.835 142.158 106.426C142.158 107.016 141.936 107.585 141.536 108.019C141.137 108.453 140.588 108.721 140 108.77Z" fill="black"/>
<path opacity="0.25" d="M140 116H118.702C118.088 116.037 117.483 115.831 117.019 115.428C116.554 115.024 116.266 114.454 116.217 113.84C116.168 113.227 116.361 112.618 116.755 112.145C117.15 111.673 117.714 111.374 118.326 111.312C118.451 111.302 118.577 111.302 118.702 111.312H140C140.588 111.361 141.137 111.629 141.536 112.063C141.936 112.497 142.158 113.066 142.158 113.656C142.158 114.246 141.936 114.815 141.536 115.249C141.137 115.683 140.588 115.951 140 116Z" fill="black"/>
<path d="M149.92 91.3312C149.919 91.7452 149.754 92.1421 149.462 92.435C149.169 92.728 148.772 92.8931 148.358 92.8944H110.346C109.931 92.8927 109.535 92.7275 109.242 92.4348C108.948 92.142 108.783 91.7454 108.781 91.3312V78.4416C108.783 78.0277 108.949 77.6315 109.242 77.3391C109.535 77.0467 109.932 76.8817 110.346 76.88H148.362C148.775 76.8813 149.172 77.0462 149.464 77.3388C149.757 77.6314 149.922 78.0278 149.923 78.4416L149.92 91.3312Z" fill="#C3DDF4"/>
<path d="M114.982 91.3312V78.4416C114.984 78.028 115.149 77.6317 115.442 77.3393C115.734 77.0468 116.13 76.8817 116.544 76.88H110.346C109.932 76.8817 109.535 77.0467 109.242 77.3391C108.949 77.6315 108.783 78.0277 108.781 78.4416V91.3312C108.783 91.7454 108.948 92.142 109.242 92.4348C109.535 92.7275 109.931 92.8927 110.346 92.8944H116.544C116.13 92.8927 115.734 92.7274 115.441 92.4346C115.149 92.1417 114.984 91.7451 114.982 91.3312Z" fill="#AEC1ED"/>
<path d="M144.301 127.942C144.3 128.356 144.135 128.753 143.842 129.046C143.55 129.339 143.153 129.504 142.739 129.506H115.97C115.555 129.505 115.158 129.34 114.866 129.047C114.573 128.754 114.408 128.357 114.408 127.942V122.662C114.409 122.248 114.574 121.852 114.867 121.559C115.159 121.266 115.556 121.101 115.97 121.099H142.739C143.153 121.101 143.55 121.266 143.842 121.559C144.135 121.852 144.3 122.248 144.301 122.662V127.942Z" fill="#C3DDF4"/>
<path d="M120.608 127.942V122.662C120.609 122.248 120.774 121.851 121.067 121.558C121.36 121.266 121.757 121.1 122.171 121.099H115.97C115.556 121.101 115.159 121.266 114.867 121.559C114.574 121.852 114.409 122.248 114.408 122.662V127.942C114.409 128.357 114.574 128.754 114.866 129.047C115.159 129.34 115.555 129.505 115.97 129.507H122.171C121.757 129.506 121.36 129.341 121.067 129.047C120.774 128.754 120.609 128.357 120.608 127.942Z" fill="#AEC1ED"/>
</g>
<defs>
<clipPath id="clip0">
<rect width="160" height="160" fill="white"/>
</clipPath>
</defs>
</svg>
