<svg width="160" height="160" viewBox="0 0 160 160" fill="none" xmlns="http://www.w3.org/2000/svg">
<path d="M146.472 76.4096C146.471 75.0995 145.95 73.8433 145.024 72.9168C144.097 71.9902 142.841 71.4689 141.531 71.4672H133.8C132.498 65.6575 130.199 60.1174 127.005 55.0928L132.48 49.6176C133.406 48.6905 133.927 47.4337 133.927 46.1232C133.927 44.8127 133.406 43.5559 132.48 42.6288L123.248 33.3968C122.321 32.4709 121.064 31.9509 119.754 31.9509C118.443 31.9509 117.186 32.4709 116.259 33.3968L110.786 38.8704C105.76 35.678 100.22 33.379 94.4112 32.0752V24.3456C94.4095 23.0353 93.8882 21.7792 92.9617 20.8527C92.0352 19.9262 90.7791 19.4049 89.4688 19.4032H76.4112C75.1009 19.4049 73.8448 19.9262 72.9182 20.8527C71.9917 21.7792 71.4705 23.0353 71.4688 24.3456V32.0752C65.6595 33.3787 60.1197 35.6777 55.0944 38.8704L49.6192 33.3968C48.6915 32.4717 47.4349 31.9523 46.1248 31.9523C44.8147 31.9523 43.558 32.4717 42.6304 33.3968L33.3984 42.6304C32.4721 43.5575 31.9518 44.8143 31.9518 46.1248C31.9518 47.4353 32.4721 48.6921 33.3984 49.6192L38.88 55.0944C35.687 60.1195 33.388 65.6594 32.0848 71.4688H24.3488C23.0384 71.4701 21.782 71.9912 20.8554 72.9178C19.9288 73.8444 19.4076 75.1008 19.4064 76.4112V89.4672C19.4081 90.7775 19.9293 92.0336 20.8558 92.9601C21.7824 93.8867 23.0385 94.4079 24.3488 94.4096H32.0784C33.3839 100.219 35.6851 105.759 38.88 110.784L33.4048 116.258C32.4789 117.185 31.9589 118.442 31.9589 119.752C31.9589 121.062 32.4789 122.319 33.4048 123.246L42.6368 132.478C44.504 134.346 47.7568 134.346 49.6256 132.478L55.1008 127.005C60.1254 130.198 65.6655 132.497 71.4752 133.798V141.528C71.4764 142.839 71.9975 144.095 72.9241 145.022C73.8506 145.949 75.107 146.47 76.4176 146.472H89.4752C90.7857 146.47 92.0421 145.949 92.9687 145.022C93.8952 144.095 94.4163 142.839 94.4176 141.528V133.798C100.227 132.496 105.767 130.197 110.792 127.005L116.259 132.48C118.126 134.347 121.379 134.347 123.248 132.48L132.48 123.248C133.406 122.321 133.927 121.064 133.927 119.753C133.927 118.442 133.406 117.185 132.48 116.258L127.008 110.784C130.199 105.759 132.497 100.22 133.8 94.4112H141.531C142.841 94.4091 144.097 93.8876 145.023 92.9612C145.949 92.0347 146.47 90.7788 146.472 89.4688V76.4096Z" fill="#E6E7E8"/>
<path d="M80 160C124.182 160 160 124.182 160 80C160 35.8176 124.182 0 80 0C35.8176 0 0 35.8176 0 80C0 124.182 35.8176 160 80 160Z" fill="white"/>
<path d="M112.48 94.5952C120.366 76.8352 112.366 56.0544 94.6128 48.1664C76.8592 40.2784 56.072 48.28 48.1856 66.0352C40.2992 83.7904 48.2976 104.576 66.0528 112.462C83.808 120.349 104.597 112.349 112.48 94.5952Z" fill="#A3EAFF"/>
<path d="M142.56 86.8544V73.7968C142.56 73.3193 142.466 72.8464 142.283 72.4053C142.1 71.9642 141.832 71.5633 141.495 71.2258C141.157 70.8882 140.756 70.6204 140.315 70.4379C139.874 70.2553 139.401 70.1614 138.923 70.1616H130.13C128.834 63.7876 126.318 57.7242 122.72 52.3056L128.944 46.08C129.626 45.3983 130.009 44.4737 130.009 43.5096C130.009 42.5455 129.626 41.6209 128.944 40.9392L119.71 31.7056C119.029 31.0239 118.104 30.641 117.14 30.641C116.176 30.641 115.251 31.0239 114.57 31.7056L108.349 37.928C102.929 34.3321 96.8652 31.8168 90.4912 30.52V21.736C90.4912 21.2586 90.3972 20.7859 90.2145 20.3449C90.0318 19.9038 89.7641 19.5031 89.4265 19.1655C89.089 18.828 88.6882 18.5602 88.2472 18.3775C87.8061 18.1948 87.3334 18.1008 86.856 18.1008H73.7984C72.8342 18.1008 71.9094 18.4837 71.2274 19.1654C70.5454 19.8471 70.1621 20.7717 70.1616 21.736V30.5232C63.7882 31.82 57.7252 34.3354 52.3056 37.9312L46.08 31.7088C45.3978 31.0274 44.4731 30.6447 43.5088 30.6447C42.5446 30.6447 41.6199 31.0274 40.9376 31.7088L31.7056 40.9424C31.3679 41.2799 31.1 41.6806 30.9172 42.1216C30.7344 42.5626 30.6403 43.0354 30.6403 43.5128C30.6403 43.9902 30.7344 44.463 30.9172 44.904C31.1 45.3451 31.3679 45.7458 31.7056 46.0832L37.9264 52.3056C34.3303 57.725 31.8149 63.7881 30.5184 70.1616H21.7344C20.7703 70.1616 19.8457 70.5446 19.164 71.2263C18.4822 71.9081 18.0992 72.8327 18.0992 73.7968V86.8544C18.0992 87.8187 18.4822 88.7435 19.1639 89.4254C19.8456 90.1074 20.7702 90.4908 21.7344 90.4912H30.5232C31.82 96.8646 34.3354 102.928 37.9312 108.347L31.7088 114.568C31.0274 115.25 30.6447 116.175 30.6447 117.139C30.6447 118.103 31.0274 119.028 31.7088 119.71L40.9424 128.942C41.6242 129.624 42.5488 130.007 43.5128 130.007C44.4769 130.007 45.4015 129.624 46.0832 128.942L52.3056 122.72C57.7251 126.316 63.7882 128.832 70.1616 130.128V138.915C70.1604 139.393 70.2535 139.867 70.4356 140.309C70.6177 140.751 70.8853 141.153 71.223 141.492C71.5607 141.83 71.9618 142.099 72.4035 142.282C72.8452 142.466 73.3187 142.56 73.7968 142.56H86.8544C87.332 142.56 87.8048 142.466 88.2461 142.284C88.6873 142.101 89.0882 141.833 89.4259 141.496C89.7637 141.158 90.0316 140.757 90.2144 140.316C90.3972 139.875 90.4912 139.402 90.4912 138.925V130.13C96.8648 128.832 102.928 126.316 108.347 122.72L114.568 128.941C115.25 129.622 116.175 130.005 117.139 130.005C118.103 130.005 119.028 129.622 119.71 128.941L128.942 119.709C129.624 119.027 130.007 118.102 130.007 117.138C130.007 116.173 129.624 115.249 128.942 114.566L122.72 108.347C126.317 102.928 128.832 96.865 130.128 90.4912H138.915C139.394 90.4923 139.867 90.399 140.309 90.2167C140.752 90.0344 141.153 89.7667 141.492 89.4288C141.831 89.091 142.099 88.6898 142.282 88.248C142.466 87.8062 142.56 87.3327 142.56 86.8544ZM80.32 115.499C60.896 115.499 45.1472 99.752 45.1472 80.3264C45.1472 60.9008 60.9008 45.1536 80.32 45.1536C99.7392 45.1536 115.499 60.9008 115.499 80.32C115.499 99.7392 99.7504 115.499 80.32 115.499Z" fill="#264BC6"/>
<path d="M65.7217 96.984V63.6688C65.7211 63.1805 65.8476 62.7004 66.0887 62.2758C66.3299 61.8511 66.6773 61.4965 67.097 61.2468C67.5166 60.9971 67.994 60.8609 68.4823 60.8516C68.9705 60.8423 69.4528 60.9601 69.8817 61.1936L100.571 77.8528C101.017 78.0945 101.388 78.4518 101.647 78.8872C101.906 79.3226 102.043 79.8198 102.043 80.3264C102.043 80.833 101.906 81.3303 101.647 81.7656C101.388 82.201 101.017 82.5584 100.571 82.8L69.8785 99.4592C69.4496 99.6914 68.9678 99.8083 68.4802 99.7983C67.9926 99.7884 67.516 99.6519 67.0969 99.4024C66.6779 99.1529 66.3309 98.7989 66.0898 98.3749C65.8487 97.951 65.7219 97.4717 65.7217 96.984Z" fill="#1A8DFA"/>
<path d="M143.861 73.7968C143.859 72.4868 143.338 71.2309 142.412 70.3044C141.486 69.378 140.23 68.8565 138.92 68.8544H131.187C129.885 63.0449 127.587 57.5049 124.394 52.48L129.867 47.0048C130.326 46.546 130.69 46.0012 130.939 45.4016C131.187 44.8021 131.315 44.1594 131.315 43.5104C131.315 42.8614 131.187 42.2187 130.939 41.6192C130.69 41.0196 130.326 40.4748 129.867 40.016L120.64 30.784C119.712 29.8583 118.455 29.3385 117.144 29.3385C115.833 29.3385 114.576 29.8583 113.648 30.784L108.176 36.2576C103.151 33.065 97.6109 30.7666 91.8016 29.464V21.7344C91.7978 20.4249 91.2752 19.1704 90.3482 18.2455C89.4212 17.3206 88.1655 16.8008 86.856 16.8H73.7984C72.488 16.8013 71.2316 17.3224 70.305 18.249C69.3784 19.1756 68.8573 20.432 68.856 21.7424V29.472C63.0466 30.7714 57.506 33.0672 52.48 36.2576L47.0048 30.7856C46.0773 29.8597 44.8203 29.3396 43.5096 29.3396C42.199 29.3396 40.942 29.8597 40.0144 30.7856L30.7824 40.0176C29.8573 40.9455 29.3378 42.2024 29.3378 43.5128C29.3378 44.8231 29.8573 46.08 30.7824 47.008L36.2592 52.48C33.0664 57.5044 30.7679 63.0439 29.4656 68.8528H21.7344C20.4249 68.8562 19.1701 69.3787 18.2451 70.3057C17.3201 71.2328 16.8005 72.4888 16.8 73.7984V86.856C16.8017 88.166 17.3228 89.4219 18.2489 90.3484C19.1751 91.2748 20.4308 91.7963 21.7408 91.7984H29.472C30.7749 97.6076 33.0734 103.147 36.2656 108.173L30.792 113.645C29.8669 114.573 29.3474 115.83 29.3474 117.14C29.3474 118.45 29.8669 119.707 30.792 120.635L40.024 129.866C41.8928 131.734 45.144 131.734 47.0144 129.866L52.48 124.392C57.5043 127.585 63.0438 129.884 68.8528 131.186V138.917C68.8545 140.227 69.3758 141.483 70.3023 142.41C71.2288 143.336 72.485 143.857 73.7952 143.859H86.8528C88.1631 143.857 89.4193 143.336 90.3458 142.41C91.2723 141.483 91.7935 140.227 91.7952 138.917V131.186C97.6045 129.883 103.144 127.585 108.17 124.392L113.642 129.866C115.51 131.734 118.762 131.734 120.634 129.866L129.867 120.64C130.326 120.181 130.69 119.636 130.939 119.036C131.187 118.437 131.315 117.794 131.315 117.145C131.315 116.496 131.187 115.853 130.939 115.253C130.69 114.653 130.326 114.109 129.867 113.65L124.394 108.174C127.586 103.15 129.885 97.6103 131.189 91.8016H138.92C140.23 91.7995 141.486 91.278 142.412 90.3516C143.338 89.4251 143.859 88.1692 143.861 86.8592V73.7968ZM141.248 86.8544C141.248 87.4718 141.002 88.0639 140.566 88.5006C140.129 88.9374 139.537 89.1832 138.92 89.184H130.131C129.83 89.1842 129.538 89.2885 129.305 89.4791C129.072 89.6698 128.911 89.9352 128.851 90.2304C127.592 96.4408 125.141 102.348 121.634 107.626C121.467 107.876 121.392 108.177 121.421 108.476C121.45 108.776 121.582 109.056 121.794 109.27L128.016 115.491C128.452 115.928 128.698 116.521 128.698 117.138C128.698 117.756 128.452 118.349 128.016 118.786L118.784 128.019C118.34 128.443 117.75 128.679 117.136 128.679C116.522 128.679 115.932 128.443 115.488 128.019L109.28 121.798C109.067 121.586 108.786 121.455 108.487 121.426C108.188 121.397 107.887 121.472 107.637 121.638C102.358 125.144 96.4506 127.593 90.24 128.85C89.9448 128.91 89.6795 129.07 89.4888 129.303C89.2981 129.536 89.1939 129.828 89.1936 130.13V138.917C89.1928 139.535 88.9471 140.127 88.5105 140.564C88.0738 141.001 87.4818 141.247 86.864 141.248H73.8C73.1822 141.247 72.5899 141.001 72.1531 140.564C71.7164 140.127 71.4709 139.535 71.4704 138.917V130.13C71.4699 129.828 71.3656 129.537 71.1749 129.303C70.9843 129.07 70.7191 128.91 70.424 128.85C64.2136 127.591 58.3061 125.14 53.0288 121.632C52.7778 121.465 52.4771 121.39 52.1772 121.419C51.8773 121.449 51.5967 121.58 51.3824 121.792L45.16 128.013C44.7163 128.436 44.1263 128.673 43.5128 128.673C42.8993 128.673 42.3094 128.436 41.8656 128.013L32.64 118.789C32.2042 118.351 31.9595 117.758 31.9595 117.14C31.9595 116.522 32.2042 115.929 32.64 115.491L38.8624 109.27C39.0742 109.056 39.2057 108.776 39.2349 108.476C39.264 108.177 39.189 107.876 39.0224 107.626C35.5146 102.348 33.0635 96.4409 31.8048 90.2304C31.7445 89.9353 31.5842 89.6701 31.351 89.4795C31.1178 89.2889 30.826 89.1845 30.5248 89.184H21.7344C21.1167 89.1836 20.5244 88.938 20.0876 88.5012C19.6508 88.0644 19.4053 87.4721 19.4048 86.8544V73.7968C19.4057 73.1792 19.6514 72.5872 20.0881 72.1505C20.5248 71.7138 21.1169 71.468 21.7344 71.4672H30.5232C30.8244 71.4667 31.1162 71.3623 31.3494 71.1717C31.5826 70.9811 31.7429 70.7159 31.8032 70.4208C33.0615 64.2104 35.512 58.303 39.0192 53.0256C39.1864 52.7751 39.2618 52.4744 39.2326 52.1747C39.2034 51.8749 39.0715 51.5944 38.8592 51.3808L32.64 45.1584C32.2044 44.7209 31.9598 44.1286 31.9598 43.5112C31.9598 42.8938 32.2044 42.3015 32.64 41.864L41.8736 32.6304C42.3113 32.1951 42.9036 31.9508 43.5208 31.9508C44.1381 31.9508 44.7303 32.1951 45.168 32.6304L51.3904 38.8528C51.6038 39.0656 51.8843 39.1979 52.1842 39.2271C52.4841 39.2563 52.7849 39.1805 53.0352 39.0128C58.3127 35.5056 64.2201 33.055 70.4304 31.7968C70.7255 31.7364 70.9907 31.5761 71.1813 31.3429C71.372 31.1098 71.4763 30.818 71.4768 30.5168V21.7344C71.4773 21.1165 71.7228 20.5241 72.1595 20.087C72.5963 19.65 73.1886 19.404 73.8064 19.4032H86.864C87.4819 19.404 88.0742 19.65 88.5109 20.087C88.9477 20.5241 89.1932 21.1165 89.1936 21.7344V30.5216C89.1942 30.8228 89.2985 31.1146 89.4891 31.3477C89.6798 31.5809 89.945 31.7412 90.24 31.8016C96.4511 33.06 102.359 35.5111 107.637 39.0192C107.888 39.1855 108.188 39.2603 108.488 39.2312C108.787 39.202 109.068 39.0707 109.282 38.8592L115.494 32.64C115.932 32.2036 116.524 31.9584 117.142 31.9584C117.759 31.9584 118.352 32.2036 118.789 32.64L128.021 41.8736C128.457 42.3107 128.702 42.9031 128.702 43.5208C128.702 44.1385 128.457 44.7309 128.021 45.168L121.798 51.3904C121.587 51.6043 121.455 51.8848 121.426 52.1844C121.397 52.484 121.472 52.7845 121.638 53.0352C125.146 58.3118 127.598 64.2187 128.856 70.4288C128.916 70.724 129.076 70.9894 129.31 71.18C129.543 71.3707 129.835 71.475 130.136 71.4752H138.923C139.541 71.4756 140.133 71.7212 140.57 72.158C141.007 72.5948 141.252 73.1871 141.253 73.8048V86.8624L141.248 86.8544Z" fill="#393F60"/>
<path d="M80.3201 43.848C60.2065 43.848 43.8401 60.2128 43.8401 80.328C43.8401 100.443 60.2129 116.8 80.3201 116.8C84.3245 116.805 88.3022 116.148 92.0929 114.858C92.2608 114.807 92.4168 114.723 92.5516 114.61C92.6864 114.498 92.7972 114.36 92.8774 114.204C92.9576 114.048 93.0055 113.877 93.0184 113.702C93.0312 113.527 93.0087 113.351 92.9522 113.185C92.8957 113.019 92.8063 112.866 92.6894 112.735C92.5725 112.604 92.4305 112.499 92.2718 112.424C92.113 112.349 91.9409 112.307 91.7656 112.3C91.5903 112.293 91.4153 112.322 91.2513 112.384C87.7318 113.584 84.0385 114.195 80.3201 114.192C61.6465 114.192 46.4545 98.992 46.4545 80.3248C46.4545 61.6576 61.6529 46.4608 80.3201 46.4608C98.9873 46.4608 114.194 61.6512 114.194 80.32C114.209 85.5314 113.009 90.6746 110.688 95.3408C110.61 95.4947 110.562 95.6625 110.549 95.8348C110.536 96.007 110.557 96.1801 110.611 96.3441C110.666 96.5081 110.752 96.6597 110.865 96.7901C110.978 96.9206 111.116 97.0273 111.271 97.104C111.426 97.1807 111.594 97.226 111.766 97.2372C111.939 97.2484 112.112 97.2252 112.275 97.1691C112.438 97.113 112.589 97.0251 112.718 96.9103C112.847 96.7956 112.952 96.6564 113.027 96.5008C115.526 91.4739 116.818 85.9336 116.8 80.32C116.8 60.2128 100.442 43.848 80.3201 43.848Z" fill="#393F60"/>
<path d="M103.349 80.32C103.349 79.5781 103.149 78.8498 102.77 78.2122C102.39 77.5746 101.846 77.0513 101.194 76.6976L70.5023 60.0464C69.8746 59.7051 69.1689 59.5329 68.4545 59.5467C67.7401 59.5606 67.0416 59.76 66.4276 60.1253C65.8136 60.4907 65.3051 61.0094 64.9521 61.6307C64.5992 62.2519 64.4138 62.9543 64.4143 63.6688V96.984C64.4127 97.6981 64.597 98.4003 64.9491 99.0215C65.3012 99.6428 65.809 100.162 66.4224 100.527C67.0359 100.893 67.7339 101.092 68.4479 101.106C69.1618 101.12 69.8671 100.948 70.4943 100.606L101.194 83.9488C101.847 83.5946 102.392 83.0703 102.771 82.4315C103.151 81.7926 103.35 81.063 103.349 80.32ZM99.9487 81.6464L69.2543 98.3104C69.0245 98.4352 68.7661 98.4981 68.5046 98.493C68.2431 98.4878 67.9875 98.4148 67.7627 98.2811C67.5379 98.1473 67.3518 97.9574 67.2226 97.73C67.0933 97.5026 67.0254 97.2456 67.0255 96.984V63.6688C67.0233 63.4067 67.0903 63.1487 67.2199 62.9208C67.3494 62.693 67.5368 62.5034 67.7631 62.3712C67.9981 62.2315 68.2658 62.1565 68.5391 62.1536C68.7892 62.1549 69.0347 62.2199 69.2527 62.3424L99.9471 79C100.186 79.1299 100.385 79.3216 100.523 79.555C100.662 79.7884 100.735 80.0549 100.735 80.3264C100.735 80.5979 100.662 80.8644 100.523 81.0978C100.385 81.3312 100.186 81.5229 99.9471 81.6528L99.9487 81.6464Z" fill="#393F60"/>
</svg>
