<svg width="160" height="160" viewBox="0 0 160 160" fill="none" xmlns="http://www.w3.org/2000/svg">
<g clip-path="url(#clip0)">
<path d="M85.1376 159.824L128.53 142.654C145.65 128.614 156.557 107.294 156.557 83.4336C156.557 41.1536 122.283 6.88 80 6.88C37.7168 6.88 3.43842 41.1536 3.43842 83.4336C3.43842 125.714 37.712 160 80 160C81.728 160 83.4384 159.936 85.1376 159.824Z" fill="white"/>
<path d="M124.92 99.6688C125.53 92.28 124.405 84.8768 121.133 78.2288C112.683 61.032 114.619 59.784 114.358 42.72C114.358 41.0455 113.693 39.4396 112.509 38.2556C111.325 37.0716 109.719 36.4064 108.045 36.4064C106.37 36.4064 104.765 37.0716 103.58 38.2556C102.396 39.4396 101.731 41.0455 101.731 42.72V106.186C101.732 107.153 101.631 108.119 101.432 109.066V118.149C101.428 121.83 99.9644 125.359 97.3617 127.962C94.7589 130.565 91.2299 132.029 87.5489 132.034H53.0081C58.3225 139.426 65.5908 145.193 73.9985 148.686L74.1585 148.75C79.1295 150.86 83.0724 154.839 85.1377 159.829C101.041 158.785 116.217 152.781 128.53 142.661L123.821 125.381C123.15 122.911 122.914 120.344 123.123 117.794L124.92 99.6688Z" fill="#F9CFA9"/>
<path d="M29.5648 36.64L27.6448 34.8592C26.9372 34.2035 26.1074 33.6937 25.2028 33.3587C24.2982 33.0237 23.3365 32.8702 22.3725 32.9069C21.4086 32.9436 20.4613 33.1698 19.5848 33.5726C18.7083 33.9753 17.9197 34.5468 17.264 35.2544C16.6083 35.962 16.0984 36.7917 15.7635 37.6964C15.4285 38.601 15.275 39.5627 15.3117 40.5267C15.3484 41.4906 15.5746 42.4379 15.9773 43.3144C16.3801 44.1909 16.9516 44.9795 17.6592 45.6352L29.5648 56.6672V36.64Z" fill="#F9CFA9"/>
<path d="M92.6944 0H38.72C36.2023 0.00380869 33.7887 1.00567 32.0084 2.78599C30.2281 4.56631 29.2262 6.97985 29.2224 9.4976V123.24C29.2258 125.758 30.2275 128.172 32.0078 129.953C33.7882 131.733 36.202 132.735 38.72 132.739H92.6944C95.2125 132.736 97.6266 131.734 99.407 129.953C101.187 128.172 102.189 125.758 102.192 123.24V9.4976C102.189 6.97972 101.187 4.56594 99.4065 2.78552C97.626 1.00511 95.2123 0.00338653 92.6944 0V0Z" fill="#3D4EC6"/>
<path d="M47.504 7.04C46.7956 5.98302 46.5359 4.68802 46.7819 3.43962C47.028 2.19123 47.7596 1.09159 48.816 0.3824C49.0359 0.235778 49.2676 0.107863 49.5088 0L38.72 0C36.201 -3.57335e-08 33.785 1.00059 32.0036 2.78169C30.2222 4.56279 29.2212 6.97853 29.2208 9.4976V123.24C29.2212 125.759 30.2222 128.175 32.0036 129.956C33.785 131.737 36.201 132.738 38.72 132.738H50.1984V15.368C50.1952 12.3792 49.1792 9.5232 47.504 7.04Z" fill="#1C2F94"/>
<path d="M34.72 60V123.248C34.72 124.309 35.1415 125.326 35.8916 126.076C36.6417 126.827 37.6592 127.248 38.72 127.248H92.6944C93.7553 127.248 94.7727 126.827 95.5229 126.076C96.273 125.326 96.6944 124.309 96.6944 123.248V60H34.72Z" fill="#E6F7FE"/>
<path d="M34.72 60V123.248C34.72 124.309 35.1415 125.326 35.8916 126.076C36.6417 126.827 37.6592 127.248 38.72 127.248H48.1792V60H34.72Z" fill="#D5F1FE"/>
<path d="M56.4608 79.072C56.4596 80.311 56.091 81.5217 55.4018 82.5513C54.7125 83.5808 53.7335 84.3829 52.5885 84.8561C51.4435 85.3294 50.1839 85.4525 48.969 85.21C47.754 84.9676 46.6381 84.3703 45.7625 83.4938C44.8869 82.6173 44.2908 81.5009 44.0496 80.2856C43.8083 79.0704 43.9328 77.8109 44.4072 76.6664C44.8816 75.5219 45.6847 74.5437 46.7149 73.8555C47.7451 73.1673 48.9563 72.8 50.1952 72.8C51.0182 72.7998 51.8332 72.9618 52.5936 73.2767C53.354 73.5916 54.0448 74.0532 54.6267 74.6353C55.2086 75.2173 55.6701 75.9083 55.9848 76.6687C56.2995 77.4292 56.4613 78.2442 56.4608 79.0672V79.072Z" fill="#3D4EC6"/>
<path d="M56.4608 102.306C56.4608 103.545 56.0934 104.756 55.4049 105.787C54.7164 106.817 53.7379 107.62 52.593 108.094C51.4481 108.569 50.1883 108.693 48.9729 108.451C47.7575 108.209 46.641 107.612 45.7648 106.736C44.8885 105.86 44.2918 104.743 44.05 103.528C43.8083 102.313 43.9323 101.053 44.4066 99.9079C44.8808 98.763 45.6839 97.7844 46.7142 97.0959C47.7446 96.4075 48.956 96.04 50.1952 96.04C51.857 96.04 53.4506 96.7001 54.6257 97.8752C55.8007 99.0502 56.4608 100.644 56.4608 102.306Z" fill="#3D4EC6"/>
<path d="M49.488 72.8464C48.4434 72.9638 47.4452 73.3421 46.5851 73.9465C45.7251 74.5509 45.031 75.3619 44.5666 76.3049C44.1023 77.248 43.8826 78.2926 43.9279 79.3428C43.9732 80.393 44.282 81.4149 44.8258 82.3144C45.3697 83.2139 46.1311 83.9622 47.0399 84.4903C47.9488 85.0184 48.9759 85.3093 50.0267 85.3363C51.0775 85.3633 52.1182 85.1255 53.053 84.6448C53.9878 84.1642 54.7867 83.456 55.376 82.5856C49.9808 83.2 46.5392 77.1888 49.488 72.8464Z" fill="#1C2F94"/>
<path d="M49.488 96.0816C48.4434 96.199 47.4452 96.5773 46.5851 97.1817C45.7251 97.7861 45.031 98.5971 44.5666 99.5401C44.1023 100.483 43.8826 101.528 43.9279 102.578C43.9732 103.628 44.282 104.65 44.8258 105.55C45.3697 106.449 46.1311 107.197 47.0399 107.725C47.9488 108.254 48.9759 108.545 50.0267 108.572C51.0775 108.599 52.1182 108.361 53.053 107.88C53.9878 107.399 54.7867 106.691 55.376 105.821C50.0128 106.426 46.52 100.453 49.488 96.0816Z" fill="#1C2F94"/>
<path opacity="0.25" d="M75.8016 76.4656H66.9056C66.2948 76.4496 65.7143 76.1958 65.2879 75.7581C64.8615 75.3204 64.6229 74.7335 64.6229 74.1224C64.6229 73.5113 64.8615 72.9244 65.2879 72.4867C65.7143 72.049 66.2948 71.7952 66.9056 71.7792H75.8016C76.4125 71.7952 76.993 72.049 77.4194 72.4867C77.8458 72.9244 78.0844 73.5113 78.0844 74.1224C78.0844 74.7335 77.8458 75.3204 77.4194 75.7581C76.993 76.1958 76.4125 76.4496 75.8016 76.4656Z" fill="black"/>
<path opacity="0.25" d="M84.6976 86.3648H66.9056C66.2943 86.3488 65.7135 86.0948 65.2868 85.6568C64.8601 85.2188 64.6213 84.6315 64.6213 84.02C64.6213 83.4085 64.8601 82.8212 65.2868 82.3832C65.7135 81.9452 66.2943 81.6912 66.9056 81.6752H84.6976C85.3195 81.6587 85.9225 81.8898 86.3739 82.3179C86.8254 82.7459 87.0883 83.3357 87.1048 83.9576C87.1214 84.5795 86.8902 85.1825 86.4622 85.6339C86.0341 86.0853 85.4443 86.3483 84.8224 86.3648H84.6976Z" fill="black"/>
<path opacity="0.25" d="M75.8017 99.7008H66.9056C66.299 99.6784 65.7246 99.4216 65.3033 98.9845C64.8821 98.5473 64.6467 97.9639 64.6467 97.3568C64.6467 96.7497 64.8821 96.1663 65.3033 95.7291C65.7246 95.292 66.299 95.0352 66.9056 95.0128H75.8017C76.4133 95.0122 77.0011 95.2506 77.4395 95.6771C77.878 96.1036 78.1325 96.6845 78.1488 97.296C78.165 97.9075 77.9418 98.5011 77.5267 98.9503C77.1115 99.3996 76.5373 99.6689 75.9265 99.7008H75.8017Z" fill="black"/>
<path opacity="0.25" d="M84.6976 109.6H66.9056C66.5927 109.608 66.2814 109.554 65.99 109.44C65.6985 109.325 65.4329 109.154 65.2087 108.936C64.9845 108.717 64.8064 108.456 64.6847 108.168C64.563 107.88 64.5004 107.57 64.5004 107.257C64.5004 106.944 64.563 106.634 64.6847 106.346C64.8064 106.057 64.9845 105.796 65.2087 105.578C65.4329 105.359 65.6985 105.188 65.99 105.074C66.2814 104.96 66.5927 104.905 66.9056 104.914H84.6976C85.0105 104.905 85.3218 104.96 85.6132 105.074C85.9047 105.188 86.1703 105.359 86.3945 105.578C86.6187 105.796 86.7968 106.057 86.9185 106.346C87.0402 106.634 87.1028 106.944 87.1028 107.257C87.1028 107.57 87.0402 107.88 86.9185 108.168C86.7968 108.456 86.6187 108.717 86.3945 108.936C86.1703 109.154 85.9047 109.325 85.6132 109.44C85.3218 109.554 85.0105 109.608 84.6976 109.6Z" fill="black"/>
<path d="M92.6624 5.4992H84.64C84.4602 5.49899 84.2822 5.53422 84.116 5.60288C83.9499 5.67153 83.7989 5.77226 83.6717 5.89932C83.5445 6.02637 83.4436 6.17725 83.3747 6.34332C83.3059 6.5094 83.2704 6.68742 83.2704 6.8672C83.2679 7.7413 82.9198 8.57892 82.302 9.1973C81.6842 9.81568 80.8469 10.1646 79.9728 10.168H51.3808C50.5063 10.1655 49.6684 9.81684 49.0502 9.19833C48.432 8.57981 48.0837 7.74171 48.0816 6.8672C48.0816 6.50549 47.9384 6.1585 47.6832 5.90214C47.428 5.64577 47.0817 5.5009 46.72 5.4992H38.6912C37.6304 5.4992 36.6129 5.92063 35.8628 6.67078C35.1126 7.42092 34.6912 8.43834 34.6912 9.49921V60.616H96.6624V9.49761C96.6624 8.43674 96.241 7.41932 95.4909 6.66918C94.7407 5.91903 93.7233 5.4976 92.6624 5.4976V5.4992Z" fill="#5E8CF9"/>
<path d="M48.1808 7.65761C48.1165 7.39901 48.0832 7.13367 48.0816 6.86721C48.0816 6.5055 47.9384 6.15851 47.6832 5.90214C47.428 5.64577 47.0817 5.5009 46.72 5.49921H38.6912C37.6304 5.49921 36.6129 5.92063 35.8628 6.67078C35.1126 7.42092 34.6912 8.43834 34.6912 9.49921V60.616H48.1824L48.1808 7.65761Z" fill="#255CE0"/>
<path d="M92.6625 5.4992H84.6401C84.4603 5.49899 84.2822 5.53422 84.116 5.60288C83.9499 5.67153 83.7989 5.77226 83.6717 5.89932C83.5445 6.02637 83.4436 6.17725 83.3747 6.34332C83.3059 6.5094 83.2705 6.68742 83.2705 6.8672C83.2679 7.7413 82.9198 8.57892 82.302 9.1973C81.6842 9.81568 80.8469 10.1646 79.9728 10.168H64.2032L96.6625 50.8544V9.49761C96.6625 8.43674 96.241 7.41932 95.4909 6.66918C94.7407 5.91903 93.7233 5.4976 92.6625 5.4976V5.4992Z" fill="#8DAFFC"/>
<path d="M55.6 24.1264H44.8C44.1783 24.1264 43.5821 23.8794 43.1425 23.4399C42.703 23.0003 42.456 22.4041 42.456 21.7824C42.456 21.1607 42.703 20.5645 43.1425 20.1249C43.5821 19.6854 44.1783 19.4384 44.8 19.4384H55.6C56.2217 19.4384 56.8179 19.6854 57.2575 20.1249C57.697 20.5645 57.944 21.1607 57.944 21.7824C57.944 22.4041 57.697 23.0003 57.2575 23.4399C56.8179 23.8794 56.2217 24.1264 55.6 24.1264Z" fill="#8DAFFC"/>
<path d="M40.256 75.3712C39.6825 75.9918 38.9923 76.4933 38.2249 76.8471C37.4575 77.2009 36.6279 77.4001 35.7835 77.4332C34.9392 77.4663 34.0965 77.3328 33.3038 77.0402C32.511 76.7476 31.7836 76.3017 31.1632 75.728L20.3824 65.7248C19.1306 64.5636 18.3914 62.9526 18.3273 61.2464C18.2632 59.5401 18.8796 57.8782 20.0408 56.6264C21.2021 55.3746 22.813 54.6353 24.5193 54.5713C26.2256 54.5072 27.8874 55.1236 29.1392 56.2848L39.92 66.272C40.5396 66.8474 41.0397 67.5392 41.3919 68.3079C41.7441 69.0766 41.9414 69.9071 41.9726 70.752C42.0038 71.597 41.8682 72.4398 41.5737 73.2323C41.2792 74.0249 40.8314 74.7517 40.256 75.3712Z" fill="#F9CFA9"/>
<path d="M39.9104 66.2752L34.7808 61.52C35.1298 62.7637 35.154 64.0761 34.8512 65.3319C34.5485 66.5876 33.9288 67.7448 33.0514 68.6928C32.174 69.6408 31.0681 70.348 29.8395 70.7469C28.6109 71.1458 27.3006 71.223 26.0336 70.9712L31.1536 75.7264C32.4124 76.8443 34.059 77.4246 35.7405 77.3429C37.4221 77.2611 39.0046 76.5238 40.149 75.289C41.2934 74.0543 41.9084 72.4203 41.8623 70.7374C41.8162 69.0545 41.1126 67.4567 39.9024 66.2864L39.9104 66.2752Z" fill="#FBBC8D"/>
<path d="M40.256 92.9248C39.6823 93.5455 38.992 94.0471 38.2244 94.4009C37.4568 94.7547 36.627 94.9538 35.7824 94.9867C34.9378 95.0197 34.0951 94.886 33.3022 94.5931C32.5093 94.3003 31.782 93.8541 31.1616 93.28L20.3808 83.2896C19.7511 82.7172 19.2412 82.0256 18.8804 81.2549C18.5197 80.4842 18.3153 79.6496 18.2791 78.7994C18.2429 77.9493 18.3756 77.1003 18.6695 76.3017C18.9634 75.5031 19.4127 74.7707 19.9914 74.1469C20.5701 73.523 21.2668 73.02 22.0411 72.6671C22.8154 72.3141 23.652 72.1181 24.5025 72.0905C25.353 72.0628 26.2006 72.2041 26.9962 72.506C27.7918 72.808 28.5196 73.2646 29.1376 73.8496L39.9184 83.8384C41.1664 84.9996 41.9028 86.6084 41.966 88.3118C42.0293 90.0152 41.4144 91.6742 40.256 92.9248Z" fill="#F9CFA9"/>
<path d="M40.256 110.48C39.6814 111.1 38.9902 111.6 38.2221 111.953C37.454 112.305 36.624 112.503 35.7794 112.535C34.9349 112.566 34.0924 112.431 33.3 112.137C32.5077 111.843 31.781 111.396 31.1616 110.821L20.3808 100.84C19.1769 99.6672 18.4793 98.0702 18.4368 96.39C18.3942 94.7098 19.0103 93.0796 20.1533 91.8474C21.2963 90.6152 22.8757 89.8787 24.5544 89.7951C26.233 89.7115 27.8778 90.2875 29.1376 91.4L39.9184 101.389C41.167 102.551 41.9038 104.16 41.9671 105.865C42.0304 107.569 41.415 109.229 40.256 110.48Z" fill="#F9CFA9"/>
<path d="M123.824 125.376C123.492 124.153 123.266 122.904 123.147 121.643C117.408 131.079 108.78 138.414 98.5424 142.559C88.3052 146.704 77.0046 147.439 66.3168 144.654C68.7534 146.219 71.3234 147.566 73.9968 148.678L74.1568 148.746C79.1288 150.854 83.0723 154.833 85.136 159.824C101.042 158.781 116.22 152.776 128.534 142.654L123.824 125.376Z" fill="#FBBC8D"/>
<path d="M39.9104 83.8304L34.7808 79.0752C35.1279 80.3182 35.1506 81.6295 34.8469 82.8838C34.5433 84.1381 33.9233 85.2937 33.0461 86.2404C32.1689 87.187 31.0638 87.8932 29.8362 88.2914C28.6086 88.6896 27.2995 88.7667 26.0336 88.5152L31.1536 93.272C32.4054 94.4322 34.0669 95.0475 35.7724 94.9827C37.4779 94.9179 39.0878 94.1782 40.248 92.9264C41.4082 91.6746 42.0235 90.0132 41.9587 88.3076C41.8939 86.6021 41.1542 84.9922 39.9024 83.832L39.9104 83.8304Z" fill="#FBBC8D"/>
<path d="M39.9104 101.384L34.7808 96.6288C35.1279 97.8718 35.1506 99.1831 34.8469 100.437C34.5433 101.692 33.9233 102.847 33.0461 103.794C32.1689 104.741 31.0638 105.447 29.8362 105.845C28.6086 106.243 27.2995 106.32 26.0336 106.069L31.1536 110.826C32.4124 111.943 34.059 112.524 35.7405 112.442C37.4221 112.36 39.0046 111.623 40.149 110.388C41.2934 109.153 41.9084 107.519 41.8623 105.837C41.8162 104.154 41.1126 102.556 39.9024 101.386L39.9104 101.384Z" fill="#FBBC8D"/>
</g>
<defs>
<clipPath id="clip0">
<rect width="160" height="160" fill="white"/>
</clipPath>
</defs>
</svg>
