<svg xmlns="http://www.w3.org/2000/svg" xmlns:xlink="http://www.w3.org/1999/xlink" viewBox="0 0 1280 296"><defs><style>.cls-1{fill:url(#linear-gradient);}.cls-2{fill:url(#linear-gradient-2);}.cls-3{fill:url(#linear-gradient-3);}.cls-4{fill:url(#linear-gradient-4);}.cls-5{fill:url(#linear-gradient-5);}.cls-6{fill:url(#linear-gradient-6);}.cls-7{fill:none;}</style><linearGradient id="linear-gradient" x1="172.71" y1="275.18" x2="143.82" y2="168.69" gradientUnits="userSpaceOnUse"><stop offset="0" stop-color="#0041ab"/><stop offset="1" stop-color="#0b78c6"/></linearGradient><linearGradient id="linear-gradient-2" x1="371.59" y1="31.68" x2="435.57" y2="121.57" gradientTransform="translate(620.29 137.27) rotate(180)" xlink:href="#linear-gradient"/><linearGradient id="linear-gradient-3" x1="88.14" y1="119.55" x2="112.53" y2="196.66" xlink:href="#linear-gradient"/><linearGradient id="linear-gradient-4" x1="276.89" y1="237.27" x2="256.52" y2="159.66" gradientTransform="translate(556.57 324.32) rotate(180)" xlink:href="#linear-gradient"/><linearGradient id="linear-gradient-5" x1="91.36" y1="94.25" x2="83.04" y2="129.08" gradientUnits="userSpaceOnUse"><stop offset="0" stop-color="#0041ab"/><stop offset="0.34" stop-color="#0350b2"/><stop offset="0.98" stop-color="#0b76c5"/><stop offset="1" stop-color="#0b78c6"/></linearGradient><linearGradient id="linear-gradient-6" x1="266.36" y1="241.6" x2="270.52" y2="205.85" gradientTransform="translate(568.33 444.2) rotate(180)" xlink:href="#linear-gradient-5"/></defs><g id="Engenharia"><path d="M418.56,257.17v-36.1h29.22v5.41h-23v9.91h18v5.41h-18v9.91h23v5.46Z"/><path d="M536.77,257.17l-21.1-26v26h-6.18v-36.1h5.89l21.11,26v-26h6.23v36.1Z"/><path d="M642.86,249.51A20.25,20.25,0,0,1,639.4,253a21.1,21.1,0,0,1-4.32,2.67,24.86,24.86,0,0,1-4.94,1.71,23.78,23.78,0,0,1-5.35.6,22.74,22.74,0,0,1-15.33-5.51,17.48,17.48,0,0,1-6.29-13.42,17.11,17.11,0,0,1,6.35-13.31,22.4,22.4,0,0,1,15.27-5.61,23.29,23.29,0,0,1,9.84,2.13,22.34,22.34,0,0,1,7.89,6l-5.09,3.1a17,17,0,0,0-5.72-4.28,16.33,16.33,0,0,0-6.92-1.52,16.14,16.14,0,0,0-10.92,3.9,12.37,12.37,0,0,0,0,19.12,16.26,16.26,0,0,0,10.92,4,15.47,15.47,0,0,0,12-4.91v-5.9H624.16v-5.41h18.76v12.82Z"/><path d="M704.17,257.17v-36.1H733.4v5.41h-23v9.91h18v5.41h-18v9.91h23v5.46Z"/><path d="M822.38,257.17l-21.1-26v26H795.1v-36.1H801l21.1,26v-26h6.23v36.1Z"/><path d="M917,257.17V241.8H896.22v15.37H890v-36.1h6.18v15.32H917V221.07h6.23v36.1Z"/><path d="M1011.8,257.17l-3.32-7.92H992.07l-3.32,7.92h-6.52l15-36.1h6.17l15,36.1Zm-17.5-13.32h12l-6-14.37Z"/><path d="M1105.19,257.17l-9.26-12.52q-2-2.85-6.92-2.85h-5.44v15.37h-6.17v-36.1H1095a15.07,15.07,0,0,1,9,2.8,9.26,9.26,0,0,1,4.06,7.56,9,9,0,0,1-2.69,6.36,14.37,14.37,0,0,1-5.32,3.25,9.44,9.44,0,0,1,1.32,1.21c.45.5.95,1.1,1.48,1.8l9.73,13.12Zm-5.43-29.34a8.49,8.49,0,0,0-4.75-1.35h-11.44v9.91H1095a8.49,8.49,0,0,0,4.75-1.35,4.13,4.13,0,0,0,0-7.21Z"/><path d="M1170.1,257.17v-36.1h6.18v36.1Z"/><path d="M1264.87,257.17l-3.32-7.92h-16.41l-3.32,7.92h-6.52l15-36.1h6.18l15,36.1Zm-17.5-13.32h12l-6-14.37Z"/></g><g id="Símbolo"><polygon class="cls-1" points="117.47 222.41 145.39 156.65 190.94 191.55 217.75 296 117.47 222.41"/><polygon class="cls-2" points="274.35 74.59 246.43 140.35 200.88 105.45 174.06 1 274.35 74.59"/><polygon class="cls-3" points="0 137.74 117.47 222.41 173.06 91.2 0 137.74"/><polygon class="cls-4" points="391.08 158.53 274.35 74.59 218.02 205.06 391.08 158.53"/><polygon class="cls-5" points="0 137.74 173.06 91.2 115.27 55.84 0 137.74"/><polygon class="cls-6" points="391.08 158.53 217.71 205.06 275.81 241 391.08 158.53"/></g><g id="OCCAM"><path d="M585,104.73c0,41-28.18,77.37-66.25,87.51L500.43,162c26.45-2.28,47.33-29.36,47.33-56.29,0-28.13-22.81-57.42-50.94-57.42s-50.94,29.29-50.94,57.42,22.8,56.45,50.94,56.45l.49,32.88c-48.42,0-87.68-41.88-87.68-90.31s39.26-89.26,87.68-89.26S585,56.31,585,104.73Z"/><line class="cls-7" x1="497.31" y1="195.04" x2="496.82" y2="162.16"/><line class="cls-7" x1="518.73" y1="192.24" x2="500.43" y2="162"/><path d="M685.39,163.63c-29.22,0-52.9-27.72-52.9-56.94,0-33.06,23.68-60.24,52.9-60.24,19.62,0,36.75,12.43,45.88,30.5L762,57.26a90.37,90.37,0,1,0,0,95.93L731.29,134C722.16,151.11,705,163.63,685.39,163.63Z"/><path d="M852.35,163.63c-29.22,0-52.9-27.72-52.9-56.94,0-33.06,23.68-60.24,52.9-60.24,19.62,0,36.75,12.43,45.88,30.5l30.71-19.69a90.37,90.37,0,1,0,0,95.93L898.25,134C889.12,151.11,872,163.63,852.35,163.63Z"/><line class="cls-7" x1="761.98" y1="57.26" x2="731.27" y2="76.95"/><polyline class="cls-7" points="761.98 153.19 731.29 134.04 731.27 134.03"/><polygon points="1071.43 191.67 1109.02 191.67 1084.02 130.22 1084.02 130.22 1084.02 130.22 1059.02 68.78 1049.06 46.33 1021.43 68.78 1046.43 130.22 991.31 130.22 1036.53 18.53 998.94 18.53 928.94 191.43 966.53 191.43 979.27 159.96 1058.53 159.96 1071.43 191.67"/><polygon points="1246.69 191.67 1280 191.67 1280 99.35 1280 76.57 1246.69 99.35 1246.69 191.67"/><polygon points="1254.04 17.98 1200.16 99.35 1146.5 17.98 1119.84 17.98 1119.84 28.33 1119.84 43.02 1119.84 191.67 1153.14 191.67 1153.14 90.35 1202.12 159.96 1280 41.55 1280 17.98 1254.04 17.98"/></g></svg>