<svg id="Layer_3" data-name="Layer 3" xmlns="http://www.w3.org/2000/svg" xmlns:xlink="http://www.w3.org/1999/xlink" viewBox="0 0 1000 1000"><defs><style>.cls-1{fill:none;}.cls-2{clip-path:url(#clip-path);}.cls-3{fill:#fff;}.cls-4{fill:#f9cfa9;}.cls-5{fill:#3d4ec6;}.cls-6{fill:#1c2f94;}.cls-7{fill:#e6f7fe;}.cls-8{fill:#d5f1fe;}.cls-9{opacity:0.25;isolation:isolate;}.cls-10{fill:#5e8cf9;}.cls-11{fill:#255ce0;}.cls-12{fill:#8daffc;}.cls-13{fill:#fbbc8d;}</style><clipPath id="clip-path"><rect class="cls-1" width="1000" height="1000"/></clipPath></defs><g class="cls-2"><path class="cls-3" d="M532.11,998.9l271.2-107.31c107-87.75,175.17-221,175.17-370.13C978.48,257.21,764.27,43,500,43S21.49,257.21,21.49,521.46,235.7,1000,500,1000C510.8,1000,521.49,999.6,532.11,998.9Z"/><path class="cls-4" d="M780.75,622.93c3.81-46.18-3.22-92.45-23.67-134C704.27,381.45,716.37,373.65,714.74,267a39.46,39.46,0,0,0-78.92,0V663.66a87.31,87.31,0,0,1-1.87,18v56.77a86.87,86.87,0,0,1-86.77,86.78H331.3A306.35,306.35,0,0,0,462.49,929.29l1,.4a128.68,128.68,0,0,1,68.62,69.24,476.21,476.21,0,0,0,271.2-107.3l-29.43-108a137.88,137.88,0,0,1-4.36-47.42Z"/><path class="cls-4" d="M184.78,229l-12-11.13a45.91,45.91,0,1,0-62.41,67.35l74.41,68.95Z"/><path class="cls-5" d="M579.34,0H242a59.45,59.45,0,0,0-59.36,59.36V770.25A59.45,59.45,0,0,0,242,829.62H579.34a59.44,59.44,0,0,0,59.36-59.37V59.36A59.44,59.44,0,0,0,579.34,0Z"/><path class="cls-6" d="M296.9,44a30,30,0,0,1,8.2-41.61A29.52,29.52,0,0,1,309.43,0H242a59.37,59.37,0,0,0-59.37,59.36h0V770.25A59.37,59.37,0,0,0,242,829.61h71.74V96.05C313.72,77.37,307.37,59.52,296.9,44Z"/><path class="cls-7" d="M217,375v395.3a25,25,0,0,0,25,25H579.34a25,25,0,0,0,25-25V375Z"/><path class="cls-8" d="M217,375v395.3a25,25,0,0,0,25,25h59.12V375Z"/><path class="cls-5" d="M352.88,494.2A39.16,39.16,0,1,1,313.72,455a39.15,39.15,0,0,1,39.16,39.17Z"/><path class="cls-5" d="M352.88,639.41a39.16,39.16,0,1,1-39.16-39.16A39.16,39.16,0,0,1,352.88,639.41Z"/><path class="cls-6" d="M309.3,455.29a39.16,39.16,0,1,0,36.8,60.87C312.38,520,290.87,482.43,309.3,455.29Z"/><path class="cls-6" d="M309.3,600.51a39.16,39.16,0,1,0,36.8,60.87C312.58,665.16,290.75,627.83,309.3,600.51Z"/><path class="cls-9" d="M473.76,477.91h-55.6a14.65,14.65,0,0,1,0-29.29h55.6a14.65,14.65,0,0,1,0,29.29Z"/><path class="cls-9" d="M529.36,539.78H418.16a14.66,14.66,0,0,1,0-29.31h111.2a14.66,14.66,0,0,1,.78,29.31Z"/><path class="cls-9" d="M473.76,623.13h-55.6a14.66,14.66,0,0,1,0-29.3h55.6a14.66,14.66,0,0,1,.78,29.3Z"/><path class="cls-9" d="M529.36,685H418.16a14.65,14.65,0,1,1,0-29.29h111.2a14.65,14.65,0,1,1,0,29.29Z"/><path class="cls-10" d="M579.14,34.37H529a8.55,8.55,0,0,0-8.56,8.55,20.69,20.69,0,0,1-20.61,20.63H321.13a20.68,20.68,0,0,1-20.62-20.63A8.55,8.55,0,0,0,292,34.37H241.82a25,25,0,0,0-25,25h0V378.85H604.14V59.36a25,25,0,0,0-25-25Z"/><path class="cls-11" d="M301.13,47.86a21,21,0,0,1-.62-4.94A8.55,8.55,0,0,0,292,34.37H241.82a25,25,0,0,0-25,25h0V378.85h84.32Z"/><path class="cls-12" d="M579.14,34.37H529a8.55,8.55,0,0,0-8.56,8.55,20.69,20.69,0,0,1-20.61,20.63H401.27L604.14,317.84V59.36a25,25,0,0,0-25-25Z"/><path class="cls-12" d="M347.5,150.79H280a14.65,14.65,0,1,1,0-29.3H347.5a14.65,14.65,0,0,1,0,29.3Z"/><path class="cls-4" d="M251.6,471.07a40.21,40.21,0,0,1-56.83,2.23h0l-67.38-62.52a40.23,40.23,0,0,1,54.73-59h0l67.38,62.42A40.24,40.24,0,0,1,251.6,471.07Z"/><path class="cls-13" d="M249.44,414.22,217.38,384.5a47.22,47.22,0,0,1-54.67,59.07l32,29.72a40.23,40.23,0,0,0,54.68-59Z"/><path class="cls-4" d="M251.6,580.78A40.21,40.21,0,0,1,194.76,583h0l-67.38-62.44a40.24,40.24,0,1,1,54.73-59h0l67.38,62.43A40.23,40.23,0,0,1,251.6,580.78Z"/><path class="cls-4" d="M251.6,690.5a40.21,40.21,0,0,1-56.84,2.13h0l-67.38-62.38a40.25,40.25,0,0,1,54.73-59h0l67.38,62.43A40.25,40.25,0,0,1,251.6,690.5Z"/><path class="cls-13" d="M773.9,783.6a138.91,138.91,0,0,1-4.23-23.33A321,321,0,0,1,414.48,904.09a307.4,307.4,0,0,0,48,25.15l1,.42a128.58,128.58,0,0,1,68.62,69.24A476.26,476.26,0,0,0,803.34,891.59Z"/><path class="cls-13" d="M249.44,523.94l-32.06-29.72a47.21,47.21,0,0,1-54.67,59l32,29.73a40.22,40.22,0,0,0,54.68-59Z"/><path class="cls-13" d="M249.44,633.65l-32.06-29.72a47.21,47.21,0,0,1-54.67,59l32,29.73a40.23,40.23,0,0,0,54.68-59Z"/></g></svg>