<svg width="18" height="18" viewBox="0 0 18 18" fill="none" xmlns="http://www.w3.org/2000/svg">
<path d="M16.65 9C17.3956 9 18.0104 8.39224 17.8989 7.65503C17.6934 6.29476 17.1776 4.99346 16.3843 3.8549C15.3325 2.34533 13.8433 1.19439 12.1173 0.557115C10.3913 -0.0801573 8.51152 -0.17314 6.73108 0.290693C4.95065 0.754527 3.35513 1.75289 2.15949 3.15129C0.963839 4.54969 0.225499 6.28095 0.0439318 8.11183C-0.137636 9.94272 0.246292 11.7853 1.144 13.3913C2.0417 14.9973 3.41005 16.2895 5.06471 17.094C6.31269 17.7008 7.67833 18.0081 9.05402 17.9998C9.79959 17.9954 10.3045 17.2936 10.1886 16.5571V16.5571C10.0728 15.8206 9.37734 15.3327 8.63302 15.2893C7.80815 15.2412 6.99629 15.031 6.2453 14.6658C5.08703 14.1027 4.12919 13.1981 3.5008 12.0739C2.8724 10.9497 2.60366 9.6599 2.73075 8.37828C2.85785 7.09666 3.37469 5.88479 4.21164 4.9059C5.04859 3.92702 6.16545 3.22817 7.41176 2.90349C8.65807 2.5788 9.97394 2.64389 11.1821 3.08998C12.3903 3.53607 13.4327 4.34173 14.169 5.39843C14.6464 6.08357 14.9802 6.85291 15.1559 7.66028C15.3145 8.38881 15.9044 9 16.65 9V9Z" fill="#FDFDFD"/>
</svg>
